<svg width="291" height="170" viewBox="0 0 291 170" fill="none" xmlns="http://www.w3.org/2000/svg">
<rect width="291" height="170" rx="16" fill="white"/>
<path d="M151.36 95.75H138.59C137.07 95.75 135.68 94.98 134.88 93.68C134.08 92.38 134.01 90.8 134.69 89.43L136.41 85.98C136.97 84.86 137.87 84.16 138.88 84.05C139.89 83.94 140.92 84.44 141.7 85.41L141.92 85.69C142.36 86.23 142.87 86.52 143.37 86.47C143.87 86.43 144.33 86.07 144.67 85.46L146.56 82.05C147.34 80.64 148.38 79.91 149.51 79.96C150.63 80.02 151.59 80.86 152.23 82.34L155.36 89.65C155.94 91 155.8 92.54 154.99 93.77C154.19 95.02 152.83 95.75 151.36 95.75ZM139.16 85.55C139.12 85.55 139.08 85.55 139.04 85.56C138.54 85.61 138.08 86.01 137.75 86.66L136.03 90.11C135.58 91 135.63 92.05 136.15 92.9C136.67 93.75 137.59 94.26 138.59 94.26H151.35C152.33 94.26 153.2 93.79 153.74 92.97C154.28 92.15 154.37 91.17 153.98 90.27L150.85 82.96C150.47 82.06 149.94 81.51 149.43 81.49C148.96 81.46 148.35 81.96 147.87 82.81L145.98 86.22C145.4 87.26 144.49 87.91 143.5 88C142.51 88.08 141.5 87.6 140.75 86.66L140.53 86.38C140.11 85.83 139.63 85.55 139.16 85.55Z" fill="#292D32"/>
<path d="M139.97 81.75C137.91 81.75 136.22 80.07 136.22 78C136.22 75.93 137.9 74.25 139.97 74.25C142.04 74.25 143.72 75.93 143.72 78C143.72 80.07 142.04 81.75 139.97 81.75ZM139.97 75.75C138.73 75.75 137.72 76.76 137.72 78C137.72 79.24 138.73 80.25 139.97 80.25C141.21 80.25 142.22 79.24 142.22 78C142.22 76.76 141.21 75.75 139.97 75.75Z" fill="#292D32"/>
<path d="M75.9588 115V106.273H77.2756V113.866H81.2301V115H75.9588ZM85.451 115.132C84.8061 115.132 84.2507 114.994 83.7848 114.719C83.3217 114.44 82.9638 114.05 82.7109 113.547C82.4609 113.041 82.3359 112.449 82.3359 111.77C82.3359 111.099 82.4609 110.509 82.7109 109.997C82.9638 109.486 83.3161 109.087 83.7678 108.8C84.2223 108.513 84.7536 108.369 85.3615 108.369C85.7308 108.369 86.0888 108.43 86.4354 108.553C86.782 108.675 87.093 108.866 87.3686 109.128C87.6442 109.389 87.8615 109.729 88.0206 110.146C88.1797 110.561 88.2592 111.065 88.2592 111.659V112.111H83.0561V111.156H87.0107C87.0107 110.821 86.9425 110.524 86.8061 110.266C86.6697 110.004 86.478 109.798 86.2308 109.648C85.9865 109.497 85.6996 109.422 85.37 109.422C85.0121 109.422 84.6996 109.51 84.4325 109.686C84.1683 109.859 83.9638 110.087 83.8189 110.368C83.6768 110.646 83.6058 110.949 83.6058 111.276V112.021C83.6058 112.459 83.6825 112.831 83.8359 113.138C83.9922 113.445 84.2095 113.679 84.4879 113.841C84.7663 114 85.0916 114.08 85.4638 114.08C85.7053 114.08 85.9254 114.045 86.1243 113.977C86.3232 113.906 86.495 113.801 86.6399 113.662C86.7848 113.523 86.8956 113.351 86.9723 113.146L88.1783 113.364C88.0817 113.719 87.9084 114.03 87.6584 114.297C87.4112 114.561 87.1001 114.767 86.7251 114.915C86.353 115.06 85.9283 115.132 85.451 115.132ZM91.5778 115.145C91.163 115.145 90.788 115.068 90.4528 114.915C90.1175 114.759 89.8519 114.533 89.6559 114.237C89.4627 113.942 89.3661 113.58 89.3661 113.151C89.3661 112.781 89.4371 112.477 89.5792 112.239C89.7212 112 89.913 111.811 90.1545 111.672C90.396 111.533 90.6658 111.428 90.9641 111.357C91.2624 111.286 91.5664 111.232 91.8761 111.195C92.2681 111.149 92.5863 111.112 92.8306 111.084C93.0749 111.053 93.2525 111.003 93.3633 110.935C93.4741 110.866 93.5295 110.756 93.5295 110.602V110.572C93.5295 110.2 93.4244 109.912 93.2141 109.707C93.0067 109.503 92.6971 109.401 92.2852 109.401C91.8562 109.401 91.5181 109.496 91.271 109.686C91.0266 109.874 90.8576 110.082 90.7638 110.312L89.5664 110.04C89.7085 109.642 89.9158 109.321 90.1886 109.077C90.4641 108.83 90.7809 108.651 91.1388 108.54C91.4968 108.426 91.8732 108.369 92.2681 108.369C92.5295 108.369 92.8065 108.401 93.0991 108.463C93.3945 108.523 93.6701 108.634 93.9258 108.795C94.1843 108.957 94.396 109.189 94.5607 109.49C94.7255 109.788 94.8079 110.176 94.8079 110.653V115H93.5636V114.105H93.5124C93.43 114.27 93.3065 114.432 93.1417 114.591C92.9769 114.75 92.7653 114.882 92.5067 114.987C92.2482 115.092 91.9386 115.145 91.5778 115.145ZM91.8548 114.122C92.207 114.122 92.5082 114.053 92.7582 113.913C93.011 113.774 93.2028 113.592 93.3335 113.368C93.467 113.141 93.5337 112.898 93.5337 112.639V111.795C93.4883 111.841 93.4002 111.884 93.2695 111.923C93.1417 111.96 92.9954 111.993 92.8306 112.021C92.6658 112.047 92.5053 112.071 92.3491 112.094C92.1928 112.114 92.0621 112.131 91.957 112.145C91.7099 112.176 91.484 112.229 91.2795 112.303C91.0778 112.376 90.9158 112.483 90.7937 112.622C90.6744 112.759 90.6147 112.94 90.6147 113.168C90.6147 113.483 90.7312 113.722 90.9641 113.884C91.1971 114.043 91.494 114.122 91.8548 114.122ZM98.9553 115.128C98.4268 115.128 97.9553 114.993 97.5405 114.723C97.1286 114.45 96.8047 114.062 96.5689 113.56C96.3359 113.054 96.2195 112.447 96.2195 111.74C96.2195 111.033 96.3374 110.428 96.5732 109.925C96.8118 109.422 97.1385 109.037 97.5533 108.77C97.968 108.503 98.4382 108.369 98.9638 108.369C99.37 108.369 99.6967 108.438 99.9439 108.574C100.194 108.707 100.387 108.864 100.523 109.043C100.663 109.222 100.771 109.379 100.847 109.516H100.924V106.273H102.198V115H100.954V113.982H100.847C100.771 114.121 100.66 114.28 100.515 114.459C100.373 114.638 100.177 114.794 99.9268 114.928C99.6768 115.061 99.353 115.128 98.9553 115.128ZM99.2365 114.041C99.603 114.041 99.9126 113.945 100.165 113.751C100.421 113.555 100.614 113.284 100.745 112.938C100.879 112.591 100.945 112.187 100.945 111.727C100.945 111.273 100.88 110.875 100.749 110.534C100.619 110.193 100.427 109.928 100.174 109.737C99.9212 109.547 99.6087 109.452 99.2365 109.452C98.853 109.452 98.5334 109.551 98.2777 109.75C98.022 109.949 97.8288 110.22 97.6982 110.564C97.5703 110.908 97.5064 111.295 97.5064 111.727C97.5064 112.165 97.5717 112.558 97.7024 112.908C97.8331 113.257 98.0263 113.534 98.282 113.739C98.5405 113.94 98.8587 114.041 99.2365 114.041ZM106.838 115.132C106.193 115.132 105.637 114.994 105.172 114.719C104.708 114.44 104.35 114.05 104.098 113.547C103.848 113.041 103.723 112.449 103.723 111.77C103.723 111.099 103.848 110.509 104.098 109.997C104.35 109.486 104.703 109.087 105.154 108.8C105.609 108.513 106.14 108.369 106.748 108.369C107.118 108.369 107.475 108.43 107.822 108.553C108.169 108.675 108.48 108.866 108.755 109.128C109.031 109.389 109.248 109.729 109.407 110.146C109.566 110.561 109.646 111.065 109.646 111.659V112.111H104.443V111.156H108.397C108.397 110.821 108.329 110.524 108.193 110.266C108.056 110.004 107.865 109.798 107.618 109.648C107.373 109.497 107.086 109.422 106.757 109.422C106.399 109.422 106.086 109.51 105.819 109.686C105.555 109.859 105.35 110.087 105.206 110.368C105.064 110.646 104.993 110.949 104.993 111.276V112.021C104.993 112.459 105.069 112.831 105.223 113.138C105.379 113.445 105.596 113.679 105.875 113.841C106.153 114 106.478 114.08 106.85 114.08C107.092 114.08 107.312 114.045 107.511 113.977C107.71 113.906 107.882 113.801 108.027 113.662C108.172 113.523 108.282 113.351 108.359 113.146L109.565 113.364C109.468 113.719 109.295 114.03 109.045 114.297C108.798 114.561 108.487 114.767 108.112 114.915C107.74 115.06 107.315 115.132 106.838 115.132ZM111.06 115V108.455H112.291V109.494H112.359C112.479 109.142 112.689 108.865 112.99 108.663C113.294 108.459 113.638 108.357 114.021 108.357C114.101 108.357 114.195 108.359 114.303 108.365C114.413 108.371 114.5 108.378 114.562 108.386V109.605C114.511 109.591 114.42 109.575 114.29 109.558C114.159 109.538 114.028 109.528 113.898 109.528C113.597 109.528 113.328 109.592 113.092 109.72C112.859 109.845 112.675 110.02 112.538 110.244C112.402 110.466 112.334 110.719 112.334 111.003V115H111.06ZM115.767 115V106.273H117.042V109.516H117.118C117.192 109.379 117.299 109.222 117.438 109.043C117.577 108.864 117.77 108.707 118.017 108.574C118.265 108.438 118.591 108.369 118.998 108.369C119.526 108.369 119.998 108.503 120.412 108.77C120.827 109.037 121.152 109.422 121.388 109.925C121.627 110.428 121.746 111.033 121.746 111.74C121.746 112.447 121.628 113.054 121.392 113.56C121.157 114.062 120.833 114.45 120.421 114.723C120.009 114.993 119.539 115.128 119.01 115.128C118.613 115.128 118.287 115.061 118.034 114.928C117.784 114.794 117.588 114.638 117.446 114.459C117.304 114.28 117.195 114.121 117.118 113.982H117.012V115H115.767ZM117.016 111.727C117.016 112.187 117.083 112.591 117.216 112.938C117.35 113.284 117.543 113.555 117.796 113.751C118.049 113.945 118.358 114.041 118.725 114.041C119.105 114.041 119.424 113.94 119.679 113.739C119.935 113.534 120.128 113.257 120.259 112.908C120.392 112.558 120.459 112.165 120.459 111.727C120.459 111.295 120.394 110.908 120.263 110.564C120.135 110.22 119.942 109.949 119.684 109.75C119.428 109.551 119.108 109.452 118.725 109.452C118.355 109.452 118.043 109.547 117.787 109.737C117.534 109.928 117.343 110.193 117.212 110.534C117.081 110.875 117.016 111.273 117.016 111.727ZM125.934 115.132C125.32 115.132 124.785 114.991 124.327 114.71C123.87 114.429 123.515 114.036 123.262 113.53C123.009 113.024 122.883 112.433 122.883 111.757C122.883 111.078 123.009 110.484 123.262 109.976C123.515 109.467 123.87 109.072 124.327 108.791C124.785 108.51 125.32 108.369 125.934 108.369C126.548 108.369 127.083 108.51 127.54 108.791C127.998 109.072 128.353 109.467 128.606 109.976C128.859 110.484 128.985 111.078 128.985 111.757C128.985 112.433 128.859 113.024 128.606 113.53C128.353 114.036 127.998 114.429 127.54 114.71C127.083 114.991 126.548 115.132 125.934 115.132ZM125.938 114.062C126.336 114.062 126.665 113.957 126.927 113.747C127.188 113.537 127.381 113.257 127.506 112.908C127.634 112.558 127.698 112.173 127.698 111.753C127.698 111.335 127.634 110.952 127.506 110.602C127.381 110.25 127.188 109.967 126.927 109.754C126.665 109.541 126.336 109.435 125.938 109.435C125.538 109.435 125.205 109.541 124.941 109.754C124.68 109.967 124.485 110.25 124.357 110.602C124.232 110.952 124.17 111.335 124.17 111.753C124.17 112.173 124.232 112.558 124.357 112.908C124.485 113.257 124.68 113.537 124.941 113.747C125.205 113.957 125.538 114.062 125.938 114.062ZM132.312 115.145C131.897 115.145 131.522 115.068 131.187 114.915C130.852 114.759 130.586 114.533 130.39 114.237C130.197 113.942 130.1 113.58 130.1 113.151C130.1 112.781 130.172 112.477 130.314 112.239C130.456 112 130.647 111.811 130.889 111.672C131.13 111.533 131.4 111.428 131.699 111.357C131.997 111.286 132.301 111.232 132.61 111.195C133.002 111.149 133.321 111.112 133.565 111.084C133.809 111.053 133.987 111.003 134.098 110.935C134.208 110.866 134.264 110.756 134.264 110.602V110.572C134.264 110.2 134.159 109.912 133.949 109.707C133.741 109.503 133.431 109.401 133.02 109.401C132.591 109.401 132.252 109.496 132.005 109.686C131.761 109.874 131.592 110.082 131.498 110.312L130.301 110.04C130.443 109.642 130.65 109.321 130.923 109.077C131.199 108.83 131.515 108.651 131.873 108.54C132.231 108.426 132.608 108.369 133.002 108.369C133.264 108.369 133.541 108.401 133.833 108.463C134.129 108.523 134.404 108.634 134.66 108.795C134.919 108.957 135.13 109.189 135.295 109.49C135.46 109.788 135.542 110.176 135.542 110.653V115H134.298V114.105H134.247C134.164 114.27 134.041 114.432 133.876 114.591C133.711 114.75 133.5 114.882 133.241 114.987C132.983 115.092 132.673 115.145 132.312 115.145ZM132.589 114.122C132.941 114.122 133.243 114.053 133.493 113.913C133.745 113.774 133.937 113.592 134.068 113.368C134.201 113.141 134.268 112.898 134.268 112.639V111.795C134.223 111.841 134.135 111.884 134.004 111.923C133.876 111.96 133.73 111.993 133.565 112.021C133.4 112.047 133.24 112.071 133.083 112.094C132.927 112.114 132.797 112.131 132.691 112.145C132.444 112.176 132.218 112.229 132.014 112.303C131.812 112.376 131.65 112.483 131.528 112.622C131.409 112.759 131.349 112.94 131.349 113.168C131.349 113.483 131.466 113.722 131.699 113.884C131.931 114.043 132.228 114.122 132.589 114.122ZM137.239 115V108.455H138.471V109.494H138.539C138.658 109.142 138.869 108.865 139.17 108.663C139.474 108.459 139.817 108.357 140.201 108.357C140.281 108.357 140.374 108.359 140.482 108.365C140.593 108.371 140.68 108.378 140.742 108.386V109.605C140.691 109.591 140.6 109.575 140.469 109.558C140.339 109.538 140.208 109.528 140.077 109.528C139.776 109.528 139.508 109.592 139.272 109.72C139.039 109.845 138.854 110.02 138.718 110.244C138.582 110.466 138.513 110.719 138.513 111.003V115H137.239ZM144.061 115.128C143.532 115.128 143.061 114.993 142.646 114.723C142.234 114.45 141.91 114.062 141.674 113.56C141.441 113.054 141.325 112.447 141.325 111.74C141.325 111.033 141.443 110.428 141.679 109.925C141.917 109.422 142.244 109.037 142.659 108.77C143.074 108.503 143.544 108.369 144.069 108.369C144.475 108.369 144.802 108.438 145.049 108.574C145.299 108.707 145.493 108.864 145.629 109.043C145.768 109.222 145.876 109.379 145.953 109.516H146.029V106.273H147.304V115H146.059V113.982H145.953C145.876 114.121 145.765 114.28 145.62 114.459C145.478 114.638 145.282 114.794 145.032 114.928C144.782 115.061 144.458 115.128 144.061 115.128ZM144.342 114.041C144.708 114.041 145.018 113.945 145.271 113.751C145.527 113.555 145.72 113.284 145.85 112.938C145.984 112.591 146.051 112.187 146.051 111.727C146.051 111.273 145.985 110.875 145.855 110.534C145.724 110.193 145.532 109.928 145.279 109.737C145.027 109.547 144.714 109.452 144.342 109.452C143.958 109.452 143.639 109.551 143.383 109.75C143.127 109.949 142.934 110.22 142.804 110.564C142.676 110.908 142.612 111.295 142.612 111.727C142.612 112.165 142.677 112.558 142.808 112.908C142.939 113.257 143.132 113.534 143.387 113.739C143.646 113.94 143.964 114.041 144.342 114.041ZM157.203 110.053L156.048 110.257C156 110.109 155.923 109.969 155.818 109.835C155.716 109.702 155.576 109.592 155.4 109.507C155.224 109.422 155.004 109.379 154.74 109.379C154.379 109.379 154.078 109.46 153.836 109.622C153.595 109.781 153.474 109.987 153.474 110.24C153.474 110.459 153.555 110.635 153.717 110.768C153.879 110.902 154.14 111.011 154.501 111.097L155.541 111.335C156.143 111.474 156.592 111.689 156.887 111.979C157.183 112.268 157.331 112.645 157.331 113.108C157.331 113.5 157.217 113.849 156.99 114.156C156.765 114.46 156.451 114.699 156.048 114.872C155.647 115.045 155.183 115.132 154.654 115.132C153.922 115.132 153.324 114.976 152.86 114.663C152.397 114.348 152.113 113.901 152.008 113.321L153.24 113.134C153.316 113.455 153.474 113.697 153.713 113.862C153.951 114.024 154.262 114.105 154.646 114.105C155.064 114.105 155.397 114.018 155.647 113.845C155.897 113.669 156.022 113.455 156.022 113.202C156.022 112.997 155.946 112.825 155.792 112.686C155.642 112.547 155.41 112.442 155.098 112.371L153.99 112.128C153.379 111.989 152.927 111.767 152.635 111.463C152.345 111.159 152.2 110.774 152.2 110.308C152.2 109.922 152.308 109.584 152.524 109.294C152.74 109.004 153.038 108.778 153.419 108.616C153.799 108.452 154.235 108.369 154.727 108.369C155.434 108.369 155.991 108.523 156.397 108.83C156.804 109.134 157.072 109.541 157.203 110.053ZM161.489 115.132C160.855 115.132 160.31 114.989 159.852 114.702C159.398 114.412 159.048 114.013 158.804 113.504C158.56 112.996 158.438 112.413 158.438 111.757C158.438 111.092 158.562 110.506 158.812 109.997C159.062 109.486 159.415 109.087 159.869 108.8C160.324 108.513 160.859 108.369 161.476 108.369C161.973 108.369 162.416 108.462 162.805 108.646C163.195 108.828 163.509 109.084 163.747 109.413C163.989 109.743 164.132 110.128 164.178 110.568H162.938C162.869 110.261 162.713 109.997 162.469 109.776C162.227 109.554 161.903 109.443 161.497 109.443C161.142 109.443 160.831 109.537 160.564 109.724C160.3 109.909 160.094 110.173 159.946 110.517C159.798 110.858 159.724 111.261 159.724 111.727C159.724 112.205 159.797 112.616 159.942 112.963C160.087 113.31 160.291 113.578 160.555 113.768C160.822 113.959 161.136 114.054 161.497 114.054C161.739 114.054 161.957 114.01 162.153 113.922C162.352 113.831 162.518 113.702 162.652 113.534C162.788 113.366 162.884 113.165 162.938 112.929H164.178C164.132 113.352 163.994 113.73 163.764 114.062C163.534 114.395 163.226 114.656 162.839 114.847C162.456 115.037 162.006 115.132 161.489 115.132ZM165.54 115V108.455H166.772V109.494H166.84C166.959 109.142 167.169 108.865 167.471 108.663C167.775 108.459 168.118 108.357 168.502 108.357C168.581 108.357 168.675 108.359 168.783 108.365C168.894 108.371 168.98 108.378 169.043 108.386V109.605C168.992 109.591 168.901 109.575 168.77 109.558C168.64 109.538 168.509 109.528 168.378 109.528C168.077 109.528 167.809 109.592 167.573 109.72C167.34 109.845 167.155 110.02 167.019 110.244C166.882 110.466 166.814 110.719 166.814 111.003V115H165.54ZM172.732 115.132C172.087 115.132 171.532 114.994 171.066 114.719C170.603 114.44 170.245 114.05 169.992 113.547C169.742 113.041 169.617 112.449 169.617 111.77C169.617 111.099 169.742 110.509 169.992 109.997C170.245 109.486 170.597 109.087 171.049 108.8C171.504 108.513 172.035 108.369 172.643 108.369C173.012 108.369 173.37 108.43 173.717 108.553C174.063 108.675 174.374 108.866 174.65 109.128C174.925 109.389 175.143 109.729 175.302 110.146C175.461 110.561 175.54 111.065 175.54 111.659V112.111H170.337V111.156H174.292C174.292 110.821 174.224 110.524 174.087 110.266C173.951 110.004 173.759 109.798 173.512 109.648C173.268 109.497 172.981 109.422 172.651 109.422C172.293 109.422 171.981 109.51 171.714 109.686C171.45 109.859 171.245 110.087 171.1 110.368C170.958 110.646 170.887 110.949 170.887 111.276V112.021C170.887 112.459 170.964 112.831 171.117 113.138C171.273 113.445 171.491 113.679 171.769 113.841C172.048 114 172.373 114.08 172.745 114.08C172.987 114.08 173.207 114.045 173.406 113.977C173.604 113.906 173.776 113.801 173.921 113.662C174.066 113.523 174.177 113.351 174.254 113.146L175.46 113.364C175.363 113.719 175.19 114.03 174.94 114.297C174.692 114.561 174.381 114.767 174.006 114.915C173.634 115.06 173.21 115.132 172.732 115.132ZM179.775 115.132C179.13 115.132 178.575 114.994 178.109 114.719C177.646 114.44 177.288 114.05 177.035 113.547C176.785 113.041 176.66 112.449 176.66 111.77C176.66 111.099 176.785 110.509 177.035 109.997C177.288 109.486 177.64 109.087 178.092 108.8C178.547 108.513 179.078 108.369 179.686 108.369C180.055 108.369 180.413 108.43 180.76 108.553C181.106 108.675 181.417 108.866 181.693 109.128C181.968 109.389 182.186 109.729 182.345 110.146C182.504 110.561 182.583 111.065 182.583 111.659V112.111H177.38V111.156H181.335C181.335 110.821 181.267 110.524 181.13 110.266C180.994 110.004 180.802 109.798 180.555 109.648C180.311 109.497 180.024 109.422 179.694 109.422C179.336 109.422 179.024 109.51 178.757 109.686C178.493 109.859 178.288 110.087 178.143 110.368C178.001 110.646 177.93 110.949 177.93 111.276V112.021C177.93 112.459 178.007 112.831 178.16 113.138C178.316 113.445 178.534 113.679 178.812 113.841C179.091 114 179.416 114.08 179.788 114.08C180.029 114.08 180.25 114.045 180.449 113.977C180.647 113.906 180.819 113.801 180.964 113.662C181.109 113.523 181.22 113.351 181.297 113.146L182.502 113.364C182.406 113.719 182.233 114.03 181.983 114.297C181.735 114.561 181.424 114.767 181.049 114.915C180.677 115.06 180.252 115.132 179.775 115.132ZM185.271 111.114V115H183.997V108.455H185.22V109.52H185.301C185.452 109.173 185.688 108.895 186.009 108.685C186.332 108.474 186.74 108.369 187.232 108.369C187.678 108.369 188.068 108.463 188.403 108.651C188.739 108.835 188.999 109.111 189.183 109.477C189.368 109.844 189.46 110.297 189.46 110.837V115H188.186V110.99C188.186 110.516 188.063 110.145 187.815 109.878C187.568 109.608 187.229 109.473 186.797 109.473C186.501 109.473 186.239 109.537 186.009 109.665C185.781 109.793 185.601 109.98 185.467 110.227C185.337 110.472 185.271 110.767 185.271 111.114ZM196.074 110.053L194.919 110.257C194.871 110.109 194.794 109.969 194.689 109.835C194.587 109.702 194.447 109.592 194.271 109.507C194.095 109.422 193.875 109.379 193.611 109.379C193.25 109.379 192.949 109.46 192.707 109.622C192.466 109.781 192.345 109.987 192.345 110.24C192.345 110.459 192.426 110.635 192.588 110.768C192.75 110.902 193.011 111.011 193.372 111.097L194.412 111.335C195.014 111.474 195.463 111.689 195.759 111.979C196.054 112.268 196.202 112.645 196.202 113.108C196.202 113.5 196.088 113.849 195.861 114.156C195.636 114.46 195.322 114.699 194.919 114.872C194.518 115.045 194.054 115.132 193.526 115.132C192.793 115.132 192.195 114.976 191.732 114.663C191.268 114.348 190.984 113.901 190.879 113.321L192.111 113.134C192.188 113.455 192.345 113.697 192.584 113.862C192.822 114.024 193.134 114.105 193.517 114.105C193.935 114.105 194.268 114.018 194.518 113.845C194.768 113.669 194.893 113.455 194.893 113.202C194.893 112.997 194.817 112.825 194.663 112.686C194.513 112.547 194.281 112.442 193.969 112.371L192.861 112.128C192.25 111.989 191.798 111.767 191.506 111.463C191.216 111.159 191.071 110.774 191.071 110.308C191.071 109.922 191.179 109.584 191.395 109.294C191.611 109.004 191.909 108.778 192.29 108.616C192.67 108.452 193.107 108.369 193.598 108.369C194.305 108.369 194.862 108.523 195.268 108.83C195.675 109.134 195.943 109.541 196.074 110.053ZM198.877 111.114V115H197.603V106.273H198.86V109.52H198.941C199.094 109.168 199.328 108.888 199.644 108.68C199.959 108.473 200.371 108.369 200.88 108.369C201.328 108.369 201.721 108.462 202.056 108.646C202.394 108.831 202.655 109.107 202.84 109.473C203.027 109.837 203.121 110.291 203.121 110.837V115H201.847V110.99C201.847 110.51 201.723 110.138 201.476 109.874C201.229 109.607 200.885 109.473 200.445 109.473C200.144 109.473 199.874 109.537 199.635 109.665C199.4 109.793 199.213 109.98 199.077 110.227C198.944 110.472 198.877 110.767 198.877 111.114ZM207.578 115.132C206.965 115.132 206.429 114.991 205.972 114.71C205.515 114.429 205.159 114.036 204.907 113.53C204.654 113.024 204.527 112.433 204.527 111.757C204.527 111.078 204.654 110.484 204.907 109.976C205.159 109.467 205.515 109.072 205.972 108.791C206.429 108.51 206.965 108.369 207.578 108.369C208.192 108.369 208.728 108.51 209.185 108.791C209.642 109.072 209.998 109.467 210.25 109.976C210.503 110.484 210.63 111.078 210.63 111.757C210.63 112.433 210.503 113.024 210.25 113.53C209.998 114.036 209.642 114.429 209.185 114.71C208.728 114.991 208.192 115.132 207.578 115.132ZM207.583 114.062C207.98 114.062 208.31 113.957 208.571 113.747C208.833 113.537 209.026 113.257 209.151 112.908C209.279 112.558 209.343 112.173 209.343 111.753C209.343 111.335 209.279 110.952 209.151 110.602C209.026 110.25 208.833 109.967 208.571 109.754C208.31 109.541 207.98 109.435 207.583 109.435C207.182 109.435 206.85 109.541 206.586 109.754C206.324 109.967 206.13 110.25 206.002 110.602C205.877 110.952 205.814 111.335 205.814 111.753C205.814 112.173 205.877 112.558 206.002 112.908C206.13 113.257 206.324 113.537 206.586 113.747C206.85 113.957 207.182 114.062 207.583 114.062ZM215.107 108.455V109.477H211.532V108.455H215.107ZM212.491 106.886H213.765V113.078C213.765 113.325 213.802 113.511 213.876 113.636C213.95 113.759 214.045 113.842 214.161 113.888C214.281 113.93 214.41 113.952 214.549 113.952C214.651 113.952 214.741 113.945 214.817 113.93C214.894 113.916 214.954 113.905 214.996 113.896L215.227 114.949C215.153 114.977 215.048 115.006 214.911 115.034C214.775 115.065 214.604 115.082 214.4 115.085C214.065 115.091 213.752 115.031 213.462 114.906C213.173 114.781 212.938 114.588 212.759 114.327C212.58 114.065 212.491 113.737 212.491 113.342V106.886Z" fill="#818181"/>
</svg>
