<?xml version="1.0" standalone="no"?>
<!DOCTYPE svg PUBLIC "-//W3C//DTD SVG 20010904//EN"
 "http://www.w3.org/TR/2001/REC-SVG-20010904/DTD/svg10.dtd">
<svg version="1.0" xmlns="http://www.w3.org/2000/svg"
 width="720.000000pt" height="1080.000000pt" viewBox="0 0 720.000000 1080.000000"
 preserveAspectRatio="xMidYMid meet">

<g transform="translate(0.000000,1080.000000) scale(0.100000,-0.100000)"
fill="#000000" stroke="none">
<path d="M638 10224 c-43 -42 -77 -82 -77 -88 1 -6 37 -44 80 -85 62 -58 82
-72 91 -63 10 10 -1 25 -47 72 l-59 59 125 3 c102 3 124 6 124 18 0 12 -22 15
-124 18 l-125 3 58 58 c50 51 65 81 38 81 -4 0 -42 -35 -84 -76z"/>
<path d="M1971 10244 c-69 -49 -65 -191 8 -228 59 -31 136 -12 159 39 16 34
16 35 -9 35 -12 0 -30 -11 -41 -25 -25 -32 -70 -33 -98 -3 -28 30 -28 110 0
138 29 29 74 26 104 -6 15 -17 30 -25 40 -21 15 6 15 9 1 37 -8 16 -24 34 -34
40 -30 15 -104 12 -130 -6z"/>
<path d="M3410 10130 l0 -131 83 3 c65 2 82 6 82 18 0 11 -14 16 -57 18 l-58
3 0 109 0 110 -25 0 -25 0 0 -130z"/>
<path d="M4160 10215 l0 -45 -25 16 c-54 35 -109 -12 -107 -93 1 -73 55 -113
113 -83 13 7 19 7 19 0 0 -5 11 -10 25 -10 l25 0 0 130 0 130 -25 0 c-23 0
-25 -4 -25 -45z m-11 -69 c19 -23 9 -87 -16 -103 -19 -13 -24 -12 -42 6 -37
37 -21 111 23 111 13 0 29 -6 35 -14z"/>
<path d="M4610 10130 l0 -130 25 0 c16 0 25 6 25 16 0 14 1 14 16 0 35 -36 96
-14 114 40 16 48 5 99 -27 124 -31 24 -51 25 -81 4 -22 -15 -22 -15 -22 30 0
42 -2 46 -25 46 l-25 0 0 -130z m130 11 c30 -57 -9 -127 -55 -97 -23 15 -31
65 -15 96 14 26 56 26 70 1z"/>
<path d="M5540 10215 l0 -45 -25 16 c-31 20 -79 11 -100 -19 -22 -32 -19 -109
6 -141 24 -31 72 -35 101 -9 17 15 18 15 18 0 0 -10 8 -17 20 -17 19 0 20 7
20 130 0 123 -1 130 -20 130 -17 0 -20 -7 -20 -45z m-19 -71 c20 -24 16 -84
-6 -100 -25 -18 -31 -18 -55 6 -24 24 -26 57 -4 88 18 26 46 29 65 6z"/>
<path d="M2650 10220 c0 -11 -7 -20 -15 -20 -8 0 -15 -9 -15 -20 0 -11 7 -20
15 -20 12 0 15 -14 15 -70 0 -74 11 -90 59 -90 28 0 28 36 1 43 -17 4 -20 14
-20 61 0 49 2 56 20 56 13 0 20 7 20 20 0 13 -7 20 -20 20 -13 0 -20 7 -20 20
0 13 -7 20 -20 20 -13 0 -20 -7 -20 -20z"/>
<path d="M3200 10225 c0 -9 -7 -18 -15 -21 -8 -4 -15 -15 -15 -25 0 -10 7 -19
15 -19 12 0 15 -14 15 -68 0 -75 9 -92 52 -92 33 0 39 29 8 37 -17 5 -20 14
-20 64 0 52 2 59 20 59 13 0 20 7 20 20 0 13 -7 20 -20 20 -13 0 -20 7 -20 20
0 13 -7 20 -20 20 -11 0 -20 -7 -20 -15z"/>
<path d="M2220 10172 c-25 -25 -30 -39 -30 -77 0 -59 32 -95 84 -95 48 0 65 8
81 41 36 69 4 144 -67 156 -32 5 -41 1 -68 -25z m96 -37 c32 -49 -9 -120 -55
-95 -25 13 -35 44 -26 78 12 48 55 57 81 17z"/>
<path d="M2414 10187 c-3 -8 -4 -52 -2 -98 3 -78 5 -84 25 -87 21 -3 22 1 25
69 2 55 7 74 21 83 12 8 22 8 35 0 13 -9 18 -28 20 -83 3 -68 4 -72 25 -69 18
2 22 10 25 48 7 113 -36 174 -97 138 -25 -14 -30 -14 -35 -2 -7 18 -35 18 -42
1z"/>
<path d="M2808 10184 c-56 -30 -55 -143 0 -173 34 -18 90 -13 113 10 20 20 20
22 5 31 -13 7 -23 5 -35 -6 -22 -20 -45 -20 -65 0 -33 32 -20 44 49 44 62 0
65 1 65 24 0 38 -10 56 -41 71 -35 19 -56 18 -91 -1z m80 -36 c21 -21 13 -28
-33 -28 -25 0 -45 4 -45 8 0 15 24 32 45 32 12 0 26 -5 33 -12z"/>
<path d="M3013 10188 c-26 -12 -37 -39 -28 -67 6 -18 39 -37 80 -43 28 -5 27
-42 -1 -46 -12 -2 -28 4 -37 12 -15 16 -47 12 -47 -5 0 -17 46 -39 82 -39 64
0 101 57 61 93 -10 8 -35 18 -55 22 -40 8 -56 29 -31 43 18 11 53 4 53 -9 0
-5 9 -9 20 -9 23 0 26 22 6 39 -21 17 -78 22 -103 9z"/>
<path d="M3648 10184 c-56 -30 -55 -143 0 -173 34 -18 90 -13 113 10 20 20 20
22 5 31 -13 7 -23 5 -35 -6 -22 -20 -45 -20 -65 0 -33 32 -20 44 49 44 62 0
65 1 65 24 0 38 -10 56 -41 71 -35 19 -56 18 -91 -1z m80 -36 c21 -21 13 -28
-33 -28 -25 0 -45 4 -45 8 0 15 24 32 45 32 12 0 26 -5 33 -12z"/>
<path d="M3843 10176 c-25 -22 -26 -25 -10 -32 10 -3 23 -2 30 5 16 16 64 14
71 -4 6 -17 4 -18 -61 -35 -53 -13 -69 -39 -51 -78 15 -30 62 -41 98 -22 13 7
20 7 20 0 0 -5 9 -10 20 -10 18 0 20 7 20 78 0 83 -4 93 -37 111 -34 18 -69
13 -100 -13z m97 -100 c0 -21 -28 -46 -51 -46 -28 0 -36 30 -14 46 25 18 65
18 65 0z"/>
<path d="M4298 10184 c-56 -30 -55 -143 0 -173 34 -18 90 -13 113 10 20 20 20
22 5 31 -13 7 -23 5 -35 -6 -22 -20 -45 -20 -65 0 -33 32 -20 44 49 44 62 0
65 1 65 24 0 38 -10 56 -41 71 -35 19 -56 18 -91 -1z m80 -36 c21 -21 13 -28
-33 -28 -25 0 -45 4 -45 8 0 15 24 32 45 32 12 0 26 -5 33 -12z"/>
<path d="M4477 10193 c-4 -3 -7 -48 -7 -100 0 -93 0 -93 25 -93 24 0 25 2 25
68 0 70 10 92 42 92 11 0 18 7 18 20 0 22 -12 25 -40 10 -13 -7 -21 -7 -25 0
-7 11 -28 13 -38 3z"/>
<path d="M4878 10185 c-38 -21 -54 -82 -34 -129 17 -40 42 -56 89 -56 27 0 41
7 62 32 23 27 26 39 22 76 -3 25 -13 53 -24 63 -26 26 -81 33 -115 14z m80
-37 c28 -28 6 -118 -29 -118 -18 0 -49 41 -49 66 0 54 45 85 78 52z"/>
<path d="M5105 10190 c-12 -4 -27 -15 -34 -24 -11 -13 -11 -17 4 -22 9 -4 21
-2 28 5 16 16 64 14 71 -4 6 -17 -28 -35 -65 -35 -30 0 -61 -37 -53 -63 11
-36 25 -47 58 -47 18 0 38 6 45 13 11 10 14 10 18 0 3 -7 13 -13 24 -13 17 0
19 8 19 78 0 83 -4 93 -37 111 -25 13 -49 13 -78 1z m75 -114 c0 -21 -28 -46
-51 -46 -28 0 -36 30 -14 46 25 18 65 18 65 0z"/>
<path d="M5277 10193 c-4 -3 -7 -48 -7 -100 0 -93 0 -93 25 -93 24 0 25 2 25
68 0 70 10 92 42 92 11 0 18 7 18 20 0 22 -12 25 -40 10 -13 -7 -21 -7 -25 0
-7 11 -28 13 -38 3z"/>
<path d="M6526 8811 c-4 -5 -2 -12 3 -15 5 -4 12 -2 15 3 4 5 2 12 -3 15 -5 4
-12 2 -15 -3z"/>
<path d="M350 8710 c0 -60 4 -100 10 -100 6 0 10 18 10 40 0 36 3 40 24 40 18
0 31 -10 47 -40 13 -22 29 -40 36 -40 10 0 7 11 -9 39 -21 37 -22 40 -5 58 24
27 22 69 -5 87 -12 9 -42 16 -65 16 l-43 0 0 -100z m104 58 c17 -27 -5 -52
-48 -56 l-36 -3 0 41 0 41 36 -3 c22 -2 42 -10 48 -20z"/>
<path d="M850 8710 c0 -82 3 -100 15 -100 10 0 15 11 15 35 0 45 11 44 48 -2
17 -21 33 -35 37 -31 4 4 -6 24 -23 46 l-31 38 32 32 c19 20 26 32 17 32 -8 0
-29 -14 -47 -32 l-33 -32 0 57 c0 44 -3 57 -15 57 -12 0 -15 -18 -15 -100z"/>
<path d="M2220 8710 c0 -60 4 -100 10 -100 6 0 10 18 10 40 0 40 0 40 39 40
47 0 71 20 71 60 0 38 -32 60 -87 60 l-43 0 0 -100z m100 65 c17 -21 4 -61
-22 -69 -51 -13 -58 -9 -58 39 0 44 0 45 34 45 18 0 39 -7 46 -15z"/>
<path d="M2390 8710 c0 -82 3 -100 15 -100 12 0 15 18 15 100 0 82 -3 100 -15
100 -12 0 -15 -18 -15 -100z"/>
<path d="M6240 8710 c0 -60 4 -100 10 -100 6 0 10 18 10 40 0 40 0 40 39 40
47 0 71 20 71 60 0 38 -32 60 -87 60 l-43 0 0 -100z m100 65 c17 -21 4 -61
-22 -69 -51 -13 -58 -9 -58 39 0 44 0 45 34 45 18 0 39 -7 46 -15z"/>
<path d="M541 8746 c-10 -12 -6 -13 29 -9 35 5 40 3 40 -14 0 -16 -10 -22 -42
-29 -36 -8 -43 -13 -46 -35 -4 -37 22 -56 59 -42 17 7 31 7 35 2 14 -23 24 -5
24 44 0 64 -20 97 -59 97 -16 0 -34 -6 -40 -14z m65 -102 c-9 -24 -61 -14 -61
11 0 14 9 21 30 25 31 6 42 -7 31 -36z"/>
<path d="M680 8685 c0 -59 3 -75 15 -75 10 0 15 16 17 63 3 62 3 62 33 62 30
0 30 0 33 -62 2 -35 7 -63 12 -63 14 0 12 124 -2 138 -16 16 -50 15 -67 0 -11
-10 -14 -10 -18 0 -12 33 -23 4 -23 -63z"/>
<path d="M2481 8746 c-10 -12 -6 -13 29 -9 35 5 40 3 40 -14 0 -16 -10 -22
-42 -29 -36 -8 -43 -13 -46 -35 -4 -37 22 -56 59 -42 17 7 31 7 35 2 14 -23
24 -5 24 44 0 64 -20 97 -59 97 -16 0 -34 -6 -40 -14z m65 -102 c-9 -24 -61
-14 -61 11 0 14 9 21 30 25 31 6 42 -7 31 -36z"/>
<path d="M2614 8744 c42 -110 50 -142 37 -158 -7 -9 -17 -13 -22 -10 -5 3 -9
0 -9 -5 0 -15 35 -14 47 2 19 23 73 189 61 185 -6 -2 -20 -28 -30 -58 -10 -29
-20 -55 -22 -57 -2 -2 -13 22 -23 53 -11 32 -25 60 -33 62 -9 3 -11 -1 -6 -14z"/>
<path d="M2790 8740 c-42 -42 -12 -130 45 -130 26 0 63 25 52 36 -4 4 -13 2
-19 -4 -25 -25 -78 -8 -78 25 0 9 17 13 56 13 l56 0 -6 28 c-13 52 -69 69
-106 32z m80 -20 c10 -19 8 -20 -35 -20 -46 0 -54 7 -33 28 19 19 56 14 68 -8z"/>
<path d="M2930 8685 c0 -59 3 -75 15 -75 10 0 15 16 17 63 3 56 5 62 26 65 12
2 22 8 22 13 0 13 -24 11 -39 -3 -11 -10 -14 -10 -18 0 -12 33 -23 4 -23 -63z"/>
<path d="M6410 8685 c0 -59 3 -75 15 -75 10 0 15 16 17 63 3 56 5 62 26 65 12
2 22 8 22 13 0 13 -24 11 -39 -3 -11 -10 -14 -10 -18 0 -12 33 -23 4 -23 -63z"/>
<path d="M6520 8685 c0 -60 3 -75 15 -75 12 0 15 15 15 75 0 60 -3 75 -15 75
-12 0 -15 -15 -15 -75z"/>
<path d="M6590 8750 c0 -5 18 -10 40 -10 22 0 40 -2 40 -5 0 -3 -18 -28 -40
-56 -22 -28 -40 -55 -40 -60 0 -12 107 -11 115 1 4 6 -10 10 -34 10 -23 0 -41
4 -41 9 0 4 16 29 35 54 19 25 35 51 35 56 0 7 -23 11 -55 11 -30 0 -55 -4
-55 -10z"/>
<path d="M6755 8740 c-27 -30 -25 -88 4 -111 30 -24 53 -24 82 1 26 21 20 27
-10 9 -25 -16 -67 -4 -74 21 -5 18 0 20 49 20 50 0 54 2 54 23 0 52 -70 76
-105 37z m75 -4 c0 -2 3 -11 6 -20 5 -13 -2 -16 -35 -16 -39 0 -53 14 -34 33
7 8 63 10 63 3z"/>
<path d="M1469 7780 c-43 -23 -94 -78 -113 -123 -7 -18 -23 -77 -35 -132 -36
-161 -49 -200 -81 -240 -36 -46 -37 -57 -6 -92 14 -16 36 -41 49 -57 13 -16
29 -26 35 -22 6 3 16 31 22 60 6 30 18 60 26 66 7 7 14 18 14 26 0 26 20 24
35 -5 19 -37 21 -180 3 -201 -11 -12 -10 -12 3 -2 9 6 20 8 25 4 5 -4 6 -3 3
1 -11 13 11 90 28 102 15 11 13 17 -21 56 -52 61 -69 126 -64 254 3 99 4 105
32 134 40 42 77 48 121 21 37 -23 51 -43 72 -100 12 -32 11 -37 -7 -52 -30
-25 -25 -42 31 -98 47 -47 51 -54 44 -87 -5 -28 0 -49 28 -107 19 -39 37 -79
40 -88 10 -27 24 -22 72 27 39 39 45 50 45 87 0 29 -7 49 -21 65 -21 21 -21
26 -9 83 l13 60 -41 82 c-22 46 -43 99 -46 119 -10 55 -69 127 -130 155 -61
29 -118 30 -167 4z m-142 -372 c-3 -8 -6 -5 -6 6 -1 11 2 17 5 13 3 -3 4 -12
1 -19z m530 -200 c-3 -8 -6 -5 -6 6 -1 11 2 17 5 13 3 -3 4 -12 1 -19z"/>
<path d="M3254 7729 c-10 -17 13 -36 27 -22 12 12 4 33 -11 33 -5 0 -12 -5
-16 -11z"/>
<path d="M3893 7725 c-25 -11 -43 -32 -43 -51 0 -12 28 -1 43 16 9 11 23 20
31 20 14 0 46 -26 46 -36 0 -17 -35 -65 -74 -104 -65 -62 -61 -70 29 -70 60 0
75 3 75 15 0 11 -12 15 -51 15 l-51 0 46 51 c26 28 49 62 52 74 13 53 -46 94
-103 70z"/>
<path d="M2400 7615 c0 -108 1 -115 20 -115 18 0 20 7 20 63 0 65 11 87 42 87
25 0 38 -31 38 -94 0 -43 3 -56 15 -56 12 0 15 14 15 64 0 35 -3 72 -6 81 -9
24 -49 36 -79 25 -24 -9 -25 -8 -25 25 0 28 -4 35 -20 35 -19 0 -20 -7 -20
-115z"/>
<path d="M3723 7713 c-13 -8 -23 -22 -23 -29 0 -16 16 -19 25 -4 17 28 25 1
25 -85 0 -88 1 -95 20 -95 19 0 20 7 20 115 0 113 0 115 -22 114 -13 0 -33 -7
-45 -16z"/>
<path d="M4077 7712 c-10 -10 -17 -24 -17 -30 0 -19 24 -14 38 8 22 35 72 19
72 -23 0 -12 -11 -23 -30 -30 -38 -14 -38 -22 0 -36 35 -12 47 -35 30 -56 -16
-20 -69 -19 -76 0 -7 17 -44 21 -44 5 0 -24 41 -50 80 -50 70 0 106 64 60 105
-18 16 -19 20 -5 27 20 12 19 62 -1 82 -22 22 -87 21 -107 -2z"/>
<path d="M2263 7670 c-29 -12 -43 -40 -43 -88 0 -48 32 -82 77 -82 30 0 63 21
63 41 0 12 -27 12 -35 -1 -11 -17 -54 -11 -65 9 -15 29 -12 67 6 85 19 20 38
20 58 1 18 -19 36 -19 36 -1 0 29 -58 51 -97 36z"/>
<path d="M2635 7670 c-12 -4 -27 -15 -34 -24 -11 -14 -11 -16 3 -16 9 0 25 6
36 12 15 9 25 10 37 2 28 -17 26 -33 -4 -39 -67 -14 -78 -20 -81 -48 -6 -50
39 -73 89 -47 13 7 19 7 19 0 0 -5 7 -10 15 -10 22 0 21 132 -1 154 -8 9 -19
16 -24 16 -5 0 -14 2 -22 4 -7 3 -22 1 -33 -4z m65 -96 c0 -29 -39 -58 -65
-48 -18 7 -20 40 -2 47 17 7 67 8 67 1z"/>
<path d="M2826 7664 c-14 -7 -26 -9 -26 -3 0 5 -7 9 -15 9 -12 0 -15 -16 -15
-85 0 -78 2 -85 20 -85 17 0 19 8 22 66 2 52 7 69 21 78 28 17 47 -17 47 -86
0 -45 3 -58 15 -58 12 0 15 14 15 64 0 71 17 99 48 79 13 -7 18 -28 20 -77 2
-50 6 -66 17 -66 12 0 15 15 15 68 0 92 -29 125 -84 97 -14 -8 -28 -10 -31 -6
-9 16 -44 19 -69 5z"/>
<path d="M3118 7673 c-10 -2 -18 -10 -18 -16 0 -8 -4 -7 -12 1 -32 32 -38 14
-38 -103 0 -108 1 -115 20 -115 17 0 20 7 20 42 0 33 3 39 12 30 21 -21 65
-14 87 14 52 66 3 166 -71 147z m51 -55 c30 -53 -21 -114 -65 -78 -17 15 -19
81 -2 98 19 19 51 10 67 -20z"/>
<path d="M3373 7670 c-29 -12 -43 -40 -43 -88 0 -65 63 -103 120 -72 23 13 43
70 35 103 -12 48 -67 76 -112 57z m65 -32 c7 -7 12 -29 12 -49 0 -79 -81 -85
-88 -7 -5 54 43 89 76 56z"/>
<path d="M3578 7666 c-16 -8 -28 -11 -28 -5 0 5 -7 9 -15 9 -12 0 -15 -16 -15
-85 0 -78 2 -85 20 -85 18 0 20 7 20 64 0 69 14 92 48 81 23 -7 32 -33 32 -97
0 -36 4 -48 15 -48 12 0 15 14 15 65 0 57 -3 69 -25 90 -28 29 -31 30 -67 11z"/>
<path d="M3250 7585 c0 -78 2 -85 20 -85 18 0 20 7 20 85 0 78 -2 85 -20 85
-18 0 -20 -7 -20 -85z"/>
<path d="M5684 7502 c-39 -25 -46 -124 -13 -166 28 -36 70 -35 99 2 18 23 21
37 18 86 -3 42 -10 62 -23 72 -20 15 -63 18 -81 6z m74 -42 c14 -27 8 -95 -10
-117 -16 -20 -46 -15 -59 9 -16 30 -16 103 1 123 18 22 52 15 68 -15z"/>
<path d="M5916 7494 c-3 -9 -6 -31 -6 -50 0 -34 0 -34 38 -28 45 7 68 -12 58
-50 -8 -32 -42 -43 -66 -21 -29 26 -49 14 -22 -13 43 -43 112 -17 112 42 0 44
-29 71 -70 63 -32 -7 -33 -5 -24 31 5 18 13 22 45 22 22 0 39 5 39 10 0 6 -22
10 -49 10 -35 0 -51 -4 -55 -16z"/>
<path d="M6156 7488 c-29 -41 -15 -61 57 -88 46 -17 55 -31 32 -54 -21 -20
-49 -21 -69 -1 -16 17 -36 20 -36 6 0 -16 43 -41 70 -41 35 0 70 27 70 54 0
23 -28 56 -48 56 -29 0 -63 25 -60 44 4 27 65 36 74 12 6 -17 34 -22 34 -8 0
20 -39 42 -73 42 -26 0 -40 -6 -51 -22z"/>
<path d="M6350 7492 c-16 -13 -24 -32 -28 -70 -4 -47 -2 -54 26 -82 50 -49
112 -37 138 27 18 42 11 88 -19 121 -26 28 -85 30 -117 4z m100 -22 c22 -22
26 -69 10 -100 -27 -50 -90 -44 -108 9 -28 78 44 145 98 91z"/>
<path d="M6546 7413 l1 -98 57 -3 c34 -2 56 1 56 8 0 5 -20 10 -45 10 l-45 0
0 90 c0 67 -3 90 -13 90 -10 0 -12 -24 -11 -97z"/>
<path d="M1443 7469 c-39 -11 -46 -34 -8 -25 20 5 25 3 25 -11 1 -17 1 -17 11
1 9 15 13 16 20 5 7 -11 9 -11 9 -1 0 7 -7 15 -16 19 -13 5 -13 7 -2 14 16 11
3 10 -39 -2z"/>
<path d="M5830 7324 c0 -9 5 -14 12 -12 18 6 21 28 4 28 -9 0 -16 -7 -16 -16z"/>
<path d="M3295 7281 c-3 -5 -1 -12 5 -16 5 -3 10 1 10 9 0 18 -6 21 -15 7z"/>
<path d="M2240 7260 c-14 -11 -20 -20 -13 -20 6 0 15 5 18 10 17 27 25 2 25
-80 0 -53 4 -90 10 -90 6 0 10 40 10 100 0 108 -4 116 -50 80z"/>
<path d="M2378 7269 c-10 -5 -18 -18 -18 -27 0 -14 4 -12 19 7 14 18 24 22 44
18 50 -13 40 -62 -27 -126 -51 -49 -47 -61 18 -61 30 0 58 5 61 10 4 6 -13 10
-45 10 l-52 0 46 52 c25 29 46 63 46 75 0 44 -50 67 -92 42z"/>
<path d="M2536 7249 c-11 -55 -9 -59 32 -59 43 0 62 -14 62 -45 0 -43 -47 -60
-82 -28 -10 9 -18 12 -18 6 0 -19 38 -45 61 -41 12 2 31 15 42 30 17 23 18 30
7 57 -13 33 -39 46 -71 36 -18 -6 -20 -3 -17 27 3 31 6 33 48 39 l45 6 -51 1
c-50 2 -52 1 -58 -29z"/>
<path d="M2715 7260 c-23 -25 -30 -107 -13 -140 8 -13 26 -29 41 -34 22 -8 31
-6 52 14 21 20 25 33 25 80 0 67 -19 100 -59 100 -15 0 -36 -9 -46 -20z m83
-20 c15 -29 10 -103 -8 -125 -18 -21 -57 -19 -70 4 -15 30 -12 104 6 129 20
29 54 25 72 -8z"/>
<path d="M3541 7253 c0 -15 -8 -23 -18 -23 -17 -1 -17 -1 0 -11 13 -7 17 -23
17 -62 0 -54 12 -77 40 -76 11 0 9 4 -7 16 -19 13 -23 25 -23 68 0 43 4 54 18
58 15 4 15 5 0 6 -9 0 -19 11 -21 24 l-4 22 -2 -22z"/>
<path d="M2962 7130 c1 -71 3 -91 7 -61 5 39 8 42 20 28 31 -39 91 -2 91 56 0
61 -53 100 -88 65 -10 -10 -15 -10 -22 2 -6 10 -9 -21 -8 -90z m78 80 c39 -21
32 -102 -10 -113 -27 -7 -60 24 -60 56 0 25 26 67 41 67 6 0 19 -4 29 -10z"/>
<path d="M3140 7210 c-27 -27 -27 -83 2 -110 29 -27 54 -25 83 5 30 30 32 64
4 99 -25 31 -61 34 -89 6z m72 -7 c10 -9 18 -30 18 -49 0 -64 -75 -80 -91 -20
-17 63 31 108 73 69z"/>
<path d="M3303 7155 c0 -44 2 -61 4 -37 2 23 2 59 0 80 -2 20 -4 1 -4 -43z"/>
<path d="M3372 7155 c1 -44 3 -60 5 -35 5 70 11 88 34 95 34 11 49 -12 49 -76
0 -33 4 -59 10 -59 17 0 12 116 -6 134 -17 18 -42 20 -64 6 -9 -6 -17 -5 -22
3 -4 7 -7 -24 -6 -68z"/>
<path d="M3636 7217 c-25 -19 -12 -55 22 -63 52 -13 66 -36 31 -54 -16 -9 -26
-8 -45 5 -13 8 -24 11 -24 6 0 -12 33 -31 54 -31 23 0 57 37 50 55 -3 8 -24
20 -45 26 -27 9 -39 18 -39 31 0 24 27 34 51 20 26 -16 34 -15 19 3 -15 19
-50 19 -74 2z"/>
<path d="M1623 7198 c-26 -28 -40 -117 -23 -147 6 -13 21 -21 37 -21 24 0 25
2 17 33 -5 17 -8 60 -9 95 0 34 0 62 -1 62 0 0 -10 -10 -21 -22z"/>
<path d="M1459 6436 c-158 -46 -263 -163 -291 -326 -21 -121 21 -250 110 -339
56 -56 114 -91 120 -72 2 7 19 35 38 62 19 28 34 53 34 55 0 1 -20 17 -44 33
-44 31 -64 66 -72 126 -2 17 -6 45 -10 64 -5 32 -4 34 12 20 14 -11 18 -11 22
-1 3 10 7 9 16 -4 11 -14 15 -15 34 -3 26 16 27 27 6 57 -11 15 -25 22 -50 22
-38 0 -41 7 -18 53 26 51 35 59 50 46 7 -6 23 -9 36 -6 19 4 18 5 -7 6 -30 2
-29 2 14 22 44 21 111 20 111 -1 0 -6 13 -10 29 -10 35 0 61 -23 61 -54 0 -13
11 -40 25 -61 14 -20 28 -57 32 -81 6 -43 11 -48 46 -45 21 3 22 -12 3 -28
-10 -8 -16 -9 -21 -1 -12 19 -24 10 -34 -28 -6 -21 -23 -50 -38 -64 -38 -35
-106 -68 -141 -68 -35 0 -41 -6 -35 -31 5 -16 14 -19 63 -19 38 0 63 5 72 14
7 8 33 40 58 70 25 30 52 54 60 53 9 -1 18 -22 25 -59 5 -32 18 -66 28 -75 18
-17 20 -16 54 22 220 250 56 644 -275 661 -46 2 -95 -2 -123 -10z m-83 -341
c-11 -8 -22 -12 -25 -9 -6 6 19 24 34 24 6 -1 1 -7 -9 -15z"/>
<path d="M3220 6351 c-5 -11 -10 -26 -10 -35 0 -8 -6 -17 -12 -20 -10 -5 -10
-7 0 -12 8 -4 12 -30 12 -80 0 -59 3 -74 15 -74 12 0 15 15 15 71 0 62 2 71
20 76 26 7 26 19 0 26 -24 6 -17 33 11 40 30 8 22 27 -11 27 -19 0 -33 -7 -40
-19z"/>
<path d="M2930 6331 c0 -11 -8 -25 -17 -31 -17 -10 -17 -10 0 -20 13 -9 17
-24 17 -68 0 -63 11 -82 47 -82 16 0 21 4 17 15 -4 8 -12 15 -20 15 -10 0 -14
15 -14 60 0 47 3 60 15 60 8 0 15 5 15 10 0 6 -6 10 -14 10 -8 0 -16 10 -18
22 -4 28 -28 36 -28 9z"/>
<path d="M2258 6298 c-55 -20 -47 -70 15 -91 23 -7 43 -21 45 -29 5 -24 -36
-33 -57 -14 -22 20 -41 21 -41 1 0 -36 87 -48 120 -15 11 11 20 24 20 28 0 19
-28 42 -65 54 -41 13 -48 26 -21 43 10 6 23 5 40 -5 30 -15 47 -6 25 14 -21
20 -50 26 -81 14z"/>
<path d="M2458 6303 c-10 -2 -18 -10 -18 -16 0 -8 -4 -7 -12 1 -32 32 -38 14
-38 -103 0 -108 1 -115 20 -115 17 0 20 7 20 42 0 33 3 39 12 30 21 -21 65
-14 87 14 52 66 3 166 -71 147z m51 -55 c30 -53 -21 -114 -65 -78 -17 15 -19
81 -2 98 19 19 51 10 67 -20z"/>
<path d="M2633 6300 c-29 -12 -43 -40 -43 -88 0 -65 63 -103 120 -72 23 13 43
70 35 103 -12 48 -67 76 -112 57z m65 -32 c7 -7 12 -29 12 -49 0 -79 -81 -85
-88 -7 -5 54 43 89 76 56z"/>
<path d="M2832 6294 c-12 -8 -22 -10 -22 -5 0 6 -7 11 -15 11 -12 0 -15 -16
-15 -85 0 -78 2 -85 20 -85 18 0 20 7 20 66 0 64 1 66 30 77 17 6 29 16 27 21
-6 17 -21 17 -45 0z"/>
<path d="M3073 6302 c-29 -4 -45 -26 -41 -54 2 -16 15 -27 48 -39 49 -18 58
-30 36 -48 -16 -13 -56 -6 -56 10 0 5 -7 9 -15 9 -22 0 -19 -27 4 -40 53 -28
115 0 109 48 -2 21 -11 29 -40 37 -43 12 -63 29 -54 44 9 14 53 14 61 1 3 -5
13 -10 21 -10 11 0 12 4 5 19 -11 20 -41 29 -78 23z"/>
<path d="M3351 6298 c-14 -7 -26 -19 -29 -25 -4 -15 24 -17 33 -3 10 16 52 12
59 -6 9 -23 -2 -34 -32 -34 -60 0 -98 -65 -53 -90 26 -14 64 -13 79 2 9 9 12
9 12 0 0 -7 7 -12 15 -12 12 0 15 15 15 74 0 47 -5 77 -13 84 -22 18 -61 23
-86 10z m69 -102 c0 -16 -26 -46 -40 -46 -35 0 -50 26 -28 48 17 17 68 15 68
-2z"/>
<path d="M3552 6294 c-12 -8 -22 -10 -22 -5 0 6 -7 11 -15 11 -12 0 -15 -16
-15 -85 0 -69 3 -85 15 -85 12 0 15 14 15 63 0 65 11 87 42 87 25 0 38 -31 38
-94 0 -43 3 -56 15 -56 12 0 15 14 15 68 0 39 -5 75 -12 84 -20 25 -51 30 -76
12z"/>
<path d="M1538 6143 c-22 -6 -23 -42 -3 -69 10 -14 14 -15 15 -5 0 11 4 9 15
-5 13 -17 16 -17 28 -4 6 9 20 14 31 12 32 -7 12 22 -25 36 l-34 13 50 -5 50
-4 -24 19 c-22 18 -63 23 -103 12z"/>
<path d="M5674 6132 c-39 -25 -46 -124 -13 -166 46 -59 119 -15 119 71 0 69
-23 103 -70 103 -14 0 -30 -4 -36 -8z m74 -42 c14 -27 8 -95 -10 -117 -16 -20
-46 -15 -59 9 -16 30 -16 103 1 123 18 22 52 15 68 -15z"/>
<path d="M5907 6122 c-21 -23 -21 -32 -3 -32 8 0 17 7 20 16 4 10 15 14 33 12
39 -4 44 -43 9 -60 -30 -13 -34 -28 -8 -28 43 0 55 -44 17 -62 -19 -9 -29 -7
-50 6 -34 23 -47 10 -16 -15 28 -23 59 -24 89 -3 26 18 30 69 7 78 -14 5 -14
8 1 31 15 23 15 27 0 50 -20 31 -74 34 -99 7z"/>
<path d="M6155 6124 c-9 -9 -15 -28 -13 -43 2 -20 12 -29 48 -42 53 -20 70
-40 51 -63 -17 -21 -50 -20 -72 0 -28 25 -47 12 -21 -14 29 -29 85 -29 112 -2
35 35 19 74 -40 91 -51 15 -67 33 -50 54 7 8 23 15 36 15 12 0 29 -7 38 -15
18 -19 26 -19 26 0 0 34 -86 48 -115 19z"/>
<path d="M6343 6118 c-30 -33 -37 -79 -19 -121 26 -64 88 -76 138 -27 28 28
30 35 26 82 -4 38 -12 57 -28 70 -32 26 -91 24 -117 -4z m99 -15 c36 -42 25
-117 -19 -134 -44 -17 -83 20 -83 80 0 58 67 93 102 54z"/>
<path d="M6540 6040 l0 -100 60 0 c33 0 60 4 60 10 0 6 -20 10 -45 10 l-45 0
0 90 c0 73 -3 90 -15 90 -12 0 -15 -18 -15 -100z"/>
<path d="M1460 5968 c0 -5 16 -8 36 -8 20 0 33 4 29 10 -7 11 -65 9 -65 -2z"/>
<path d="M5820 5954 c0 -9 5 -14 12 -12 18 6 21 28 4 28 -9 0 -16 -7 -16 -16z"/>
<path d="M1456 5904 c-3 -9 -6 -16 -6 -17 0 -5 102 2 107 7 8 7 -43 26 -72 26
-12 0 -26 -7 -29 -16z"/>
<path d="M2240 5890 c-14 -11 -20 -20 -13 -20 6 0 15 5 18 10 17 27 25 2 25
-80 0 -53 4 -90 10 -90 6 0 10 40 10 100 0 108 -4 116 -50 80z"/>
<path d="M2370 5890 c-14 -11 -20 -20 -13 -20 6 0 15 5 18 10 17 27 25 2 25
-80 0 -53 4 -90 10 -90 6 0 10 40 10 100 0 108 -4 116 -50 80z"/>
<path d="M2505 5890 c-23 -25 -30 -107 -13 -140 8 -13 26 -29 41 -34 22 -8 31
-6 52 14 21 20 25 33 25 80 0 67 -19 100 -59 100 -15 0 -36 -9 -46 -20z m83
-20 c15 -29 10 -103 -8 -125 -18 -21 -57 -19 -70 4 -15 30 -12 104 6 129 20
29 54 25 72 -8z"/>
<path d="M2684 5889 c-14 -16 -19 -36 -19 -81 0 -51 4 -63 24 -79 31 -25 56
-24 81 3 25 27 28 122 4 156 -20 28 -65 29 -90 1z m84 -19 c15 -29 10 -103 -8
-125 -18 -21 -57 -19 -70 4 -15 30 -12 104 6 129 20 29 54 25 72 -8z"/>
<path d="M3265 5900 c3 -5 8 -10 11 -10 2 0 4 5 4 10 0 6 -5 10 -11 10 -5 0
-7 -4 -4 -10z"/>
<path d="M3511 5883 c0 -15 -8 -23 -18 -23 -17 -1 -17 -1 0 -11 13 -7 17 -23
17 -63 0 -52 20 -89 38 -72 4 4 -1 12 -11 17 -25 14 -25 116 1 122 15 4 15 5
0 6 -9 0 -19 11 -21 24 l-4 22 -2 -22z"/>
<path d="M1470 5868 c0 -5 17 -8 37 -8 20 0 33 3 29 8 -4 4 -21 7 -37 7 -16 0
-29 -3 -29 -7z"/>
<path d="M2932 5760 c1 -71 3 -91 7 -61 5 39 8 42 20 28 31 -39 91 -2 91 56 0
61 -53 100 -88 65 -10 -10 -15 -10 -22 2 -6 10 -9 -21 -8 -90z m78 80 c39 -21
32 -102 -10 -113 -27 -7 -60 24 -60 56 0 25 26 67 41 67 6 0 19 -4 29 -10z"/>
<path d="M3110 5840 c-27 -27 -27 -83 2 -110 29 -27 54 -25 83 5 30 30 32 64
4 99 -25 31 -61 34 -89 6z m72 -7 c10 -9 18 -30 18 -49 0 -64 -75 -80 -91 -20
-17 63 31 108 73 69z"/>
<path d="M3273 5785 c0 -44 2 -61 4 -37 2 23 2 59 0 80 -2 20 -4 1 -4 -43z"/>
<path d="M3342 5785 c1 -44 3 -60 5 -35 5 70 11 88 34 95 34 11 49 -12 49 -76
0 -33 4 -59 10 -59 17 0 12 116 -6 134 -17 18 -42 20 -64 6 -9 -6 -17 -5 -22
3 -4 7 -7 -24 -6 -68z"/>
<path d="M3606 5847 c-25 -19 -12 -55 22 -63 52 -13 66 -36 31 -54 -16 -9 -26
-8 -45 5 -13 8 -24 11 -24 6 0 -12 33 -31 54 -31 23 0 57 37 50 55 -3 8 -24
20 -45 26 -27 9 -39 18 -39 31 0 24 27 34 51 20 26 -16 34 -15 19 3 -15 19
-50 19 -74 2z"/>
<path d="M1462 5732 c-30 -54 -28 -64 3 -17 14 20 24 42 23 47 -2 5 -14 -8
-26 -30z"/>
<path d="M1529 5078 c-1 -2 -3 -22 -4 -45 -2 -39 0 -43 21 -43 14 0 25 -8 29
-19 7 -22 32 -34 48 -24 7 4 23 6 36 4 20 -2 23 1 18 18 -7 27 9 37 30 19 14
-11 15 -10 8 12 -5 14 -8 31 -8 38 0 14 -40 27 -55 18 -4 -3 -21 2 -36 10 -24
12 -83 20 -87 12z"/>
<path d="M1383 5035 c-86 -43 -144 -103 -186 -193 -29 -61 -32 -76 -32 -162 0
-86 3 -101 32 -160 44 -91 73 -124 101 -116 44 14 82 56 82 90 0 66 -13 126
-26 126 -20 0 -42 39 -50 88 -5 32 -3 42 7 42 11 0 14 18 14 73 0 104 31 148
130 183 19 6 18 7 -5 13 -23 7 -22 8 18 24 23 9 42 19 42 22 0 16 -67 0 -127
-30z"/>
<path d="M1480 5003 c0 -7 6 -13 13 -13 8 0 14 6 14 13 0 8 -6 14 -14 14 -7 0
-13 -6 -13 -14z"/>
<path d="M3720 4961 c0 -11 -8 -25 -17 -31 -17 -10 -17 -10 0 -20 13 -9 17
-24 17 -68 0 -63 11 -82 47 -82 16 0 21 4 17 15 -4 8 -12 15 -20 15 -10 0 -14
15 -14 60 0 47 3 60 15 60 8 0 15 5 15 10 0 6 -6 10 -14 10 -8 0 -16 10 -18
22 -4 28 -28 36 -28 9z"/>
<path d="M2263 4930 c-29 -12 -43 -40 -43 -88 0 -59 53 -96 96 -67 23 15 24
14 24 -8 0 -13 -5 -28 -12 -35 -15 -15 -54 -16 -63 -2 -9 15 -35 12 -35 -4 0
-20 55 -40 87 -31 50 12 53 20 53 131 0 86 -3 104 -15 104 -8 0 -15 -5 -15
-11 0 -5 -10 -3 -22 5 -25 18 -25 18 -55 6z m61 -36 c30 -30 13 -104 -24 -104
-27 0 -50 27 -50 60 0 30 22 60 45 60 7 0 21 -7 29 -16z"/>
<path d="M2465 4930 c-12 -4 -27 -15 -34 -24 -11 -14 -11 -16 3 -16 9 0 25 6
36 12 15 9 25 10 37 2 28 -17 26 -33 -4 -39 -67 -14 -78 -20 -81 -48 -6 -50
39 -73 89 -47 13 7 19 7 19 0 0 -5 7 -10 15 -10 22 0 21 132 -1 154 -8 9 -19
16 -24 16 -5 0 -14 2 -22 4 -7 3 -22 1 -33 -4z m65 -96 c0 -29 -39 -58 -65
-48 -18 7 -20 40 -2 47 17 7 67 8 67 1z"/>
<path d="M2656 4924 c-14 -7 -26 -9 -26 -3 0 5 -7 9 -15 9 -12 0 -15 -16 -15
-85 0 -78 2 -85 20 -85 17 0 19 8 22 66 2 52 7 69 21 78 28 17 47 -17 47 -86
0 -45 3 -58 15 -58 12 0 15 14 15 64 0 71 17 99 48 79 13 -7 18 -28 20 -77 2
-50 6 -66 17 -66 12 0 15 15 15 68 0 92 -29 125 -84 97 -14 -8 -28 -10 -31 -6
-9 16 -44 19 -69 5z"/>
<path d="M2923 4930 c-29 -12 -43 -40 -43 -88 0 -69 71 -106 129 -66 33 23 11
41 -23 19 -24 -16 -28 -16 -51 -1 -45 29 -32 46 35 46 57 0 60 1 60 24 0 48
-59 85 -107 66z m65 -32 c25 -25 13 -38 -33 -38 -33 0 -45 4 -45 15 0 29 56
45 78 23z"/>
<path d="M3126 4924 c-14 -7 -26 -9 -26 -3 0 5 -7 9 -15 9 -12 0 -15 -16 -15
-85 0 -78 2 -85 20 -85 17 0 19 8 22 66 2 52 7 69 21 78 28 17 47 -17 47 -86
0 -45 3 -58 15 -58 12 0 15 14 15 64 0 71 17 99 48 79 13 -7 18 -28 20 -77 2
-50 6 -66 17 -66 12 0 15 15 15 68 0 92 -29 125 -84 97 -14 -8 -28 -10 -31 -6
-9 16 -44 19 -69 5z"/>
<path d="M3395 4930 c-12 -4 -27 -15 -34 -24 -11 -14 -11 -16 3 -16 9 0 25 6
36 12 15 9 25 10 37 2 28 -17 26 -33 -4 -39 -67 -14 -78 -20 -81 -48 -6 -50
39 -73 89 -47 13 7 19 7 19 0 0 -5 7 -10 15 -10 22 0 21 132 -1 154 -8 9 -19
16 -24 16 -5 0 -14 2 -22 4 -7 3 -22 1 -33 -4z m65 -96 c0 -29 -39 -58 -65
-48 -18 7 -20 40 -2 47 17 7 67 8 67 1z"/>
<path d="M3568 4928 c-55 -20 -47 -70 15 -91 23 -7 43 -21 45 -29 5 -24 -36
-33 -57 -14 -22 20 -41 21 -41 1 0 -36 87 -48 120 -15 11 11 20 24 20 28 0 19
-28 42 -65 54 -41 13 -48 26 -21 43 10 6 23 5 40 -5 30 -15 47 -6 25 14 -21
20 -50 26 -81 14z"/>
<path d="M3865 4930 c-26 -10 -41 -28 -49 -61 -7 -34 11 -86 34 -99 40 -21
110 -5 110 25 0 19 -17 19 -37 0 -24 -25 -72 -3 -73 33 0 8 19 12 60 12 64 0
69 5 51 53 -6 14 -23 29 -42 36 -17 6 -32 11 -33 10 -1 0 -10 -4 -21 -9z m59
-36 c26 -25 19 -34 -29 -34 -46 0 -58 13 -33 38 17 17 44 15 62 -4z"/>
<path d="M4062 4924 c-12 -8 -22 -10 -22 -5 0 6 -7 11 -15 11 -12 0 -15 -16
-15 -85 0 -69 3 -85 15 -85 12 0 15 13 15 58 0 59 18 92 48 92 7 0 12 7 12 15
0 19 -10 19 -38 -1z"/>
<path d="M1630 4900 c-7 -17 -10 -43 -8 -60 4 -26 2 -29 -14 -24 -10 3 -18 0
-18 -6 0 -6 -6 -10 -12 -7 -7 2 -13 9 -13 15 0 5 -3 14 -7 18 -5 4 -8 0 -8 -9
0 -14 -10 -17 -55 -17 -54 0 -77 -15 -32 -22 21 -3 21 -4 -8 -21 -16 -10 -22
-16 -13 -13 11 3 23 -3 32 -16 15 -21 16 -21 36 -3 13 11 19 27 16 38 -3 14 0
17 16 15 18 -3 21 -11 24 -67 2 -35 -2 -73 -8 -85 -8 -15 -8 -21 3 -25 8 -3
-6 -10 -31 -17 l-45 -12 45 -1 c40 -1 43 -3 28 -15 -21 -15 -23 -33 -6 -38 10
-4 10 -10 1 -30 -10 -23 -15 -25 -45 -19 -19 5 -47 16 -64 27 -28 18 -28 18
-14 0 8 -10 41 -30 73 -44 40 -17 57 -30 55 -41 -4 -25 27 -62 46 -55 12 5 16
0 16 -22 0 -52 11 -59 68 -40 62 21 138 74 175 123 30 40 24 63 -12 43 -12 -6
-26 -8 -32 -4 -14 8 -32 53 -35 89 -8 83 -16 114 -30 119 -8 3 -20 19 -25 36
-6 16 -23 36 -37 42 -32 16 -50 85 -27 104 19 14 15 49 -6 62 -14 9 -19 6 -29
-18z"/>
<path d="M5674 4762 c-39 -25 -46 -124 -13 -166 28 -36 70 -35 99 2 18 23 21
37 18 86 -3 42 -10 62 -23 72 -20 15 -63 18 -81 6z m74 -42 c14 -27 8 -95 -10
-117 -16 -20 -46 -15 -59 9 -16 30 -16 103 1 123 18 22 52 15 68 -15z"/>
<path d="M5912 4758 c-14 -14 -16 -38 -3 -38 5 0 11 7 15 15 8 22 53 19 66 -4
8 -16 3 -28 -28 -68 -21 -26 -46 -54 -55 -62 -9 -7 -14 -17 -11 -22 7 -12 124
-11 124 1 0 6 -18 10 -40 10 -38 0 -52 12 -29 25 20 13 69 88 69 106 0 41 -77
68 -108 37z"/>
<path d="M6158 4759 c-21 -12 -24 -62 -5 -78 8 -6 28 -14 45 -17 17 -4 37 -13
43 -20 29 -35 -36 -71 -71 -39 -28 26 -49 14 -22 -13 14 -14 34 -22 55 -22 37
0 50 7 64 35 17 33 -1 63 -45 75 -50 13 -70 34 -52 55 7 8 23 15 35 15 12 0
28 -7 35 -15 16 -19 30 -19 30 0 0 30 -74 46 -112 24z"/>
<path d="M6340 4750 c-60 -60 -21 -180 60 -180 38 0 78 35 86 75 7 42 -11 102
-36 115 -31 17 -88 12 -110 -10z m104 -22 c17 -23 21 -85 8 -104 -16 -24 -51
-35 -74 -23 -31 16 -38 28 -38 69 0 48 24 80 60 80 18 0 34 -8 44 -22z"/>
<path d="M6540 4670 l0 -100 54 0 c69 0 84 18 19 22 l-48 3 -3 88 c-4 121 -22
111 -22 -13z"/>
<path d="M1330 4685 c0 -8 5 -15 10 -15 6 0 10 7 10 15 0 8 -4 15 -10 15 -5 0
-10 -7 -10 -15z"/>
<path d="M1941 4644 c0 -11 3 -14 6 -6 3 7 2 16 -1 19 -3 4 -6 -2 -5 -13z"/>
<path d="M5820 4584 c0 -17 22 -14 28 4 2 7 -3 12 -12 12 -9 0 -16 -7 -16 -16z"/>
<path d="M2240 4520 c-24 -24 -25 -48 -4 -78 16 -23 67 -31 79 -12 13 21 27 9
20 -17 -13 -54 -50 -70 -87 -36 -22 20 -24 1 -2 -21 22 -23 51 -20 79 9 20 19
25 34 25 77 0 66 -20 98 -61 98 -16 0 -38 -9 -49 -20z m71 0 c22 -12 26 -59 7
-78 -7 -7 -21 -12 -33 -12 -43 0 -61 53 -29 84 18 19 28 20 55 6z"/>
<path d="M2406 4509 c-11 -55 -9 -59 32 -59 43 0 62 -14 62 -45 0 -43 -47 -60
-82 -28 -10 9 -18 12 -18 6 0 -5 9 -18 20 -28 25 -22 64 -13 86 20 31 47 -14
107 -67 90 -18 -6 -20 -3 -17 27 3 31 6 33 48 39 l45 6 -51 1 c-50 2 -52 1
-58 -29z"/>
<path d="M2584 4519 c-14 -16 -19 -36 -19 -81 0 -51 4 -63 24 -79 31 -25 56
-24 81 3 25 27 28 122 4 156 -20 28 -65 29 -90 1z m84 -19 c15 -29 10 -103 -8
-125 -18 -21 -57 -19 -70 4 -15 30 -12 104 6 129 20 29 54 25 72 -8z"/>
<path d="M3165 4530 c3 -5 8 -10 11 -10 2 0 4 5 4 10 0 6 -5 10 -11 10 -5 0
-7 -4 -4 -10z"/>
<path d="M3411 4513 c0 -15 -8 -23 -18 -23 -17 -1 -17 -1 0 -11 13 -7 17 -23
17 -63 0 -52 20 -89 38 -72 4 4 -1 12 -11 17 -25 14 -25 116 1 122 15 4 15 5
0 6 -9 0 -19 11 -21 24 l-4 22 -2 -22z"/>
<path d="M2832 4390 c1 -71 3 -91 7 -61 5 39 8 42 20 28 31 -39 91 -2 91 56 0
61 -53 100 -88 65 -10 -10 -15 -10 -22 2 -6 10 -9 -21 -8 -90z m78 80 c39 -21
32 -102 -10 -113 -27 -7 -60 24 -60 56 0 25 26 67 41 67 6 0 19 -4 29 -10z"/>
<path d="M3010 4470 c-27 -27 -27 -83 2 -110 29 -27 54 -25 83 5 30 30 32 64
4 99 -25 31 -61 34 -89 6z m74 -6 c9 -8 16 -31 16 -49 0 -65 -75 -82 -91 -21
-17 62 35 110 75 70z"/>
<path d="M3173 4415 c0 -44 2 -61 4 -37 2 23 2 59 0 80 -2 20 -4 1 -4 -43z"/>
<path d="M3242 4415 c1 -44 3 -60 5 -35 5 70 11 88 34 95 34 11 49 -12 49 -76
0 -33 4 -59 10 -59 17 0 12 116 -6 134 -17 18 -42 20 -64 6 -9 -6 -17 -5 -22
3 -4 7 -7 -24 -6 -68z"/>
<path d="M3506 4477 c-25 -19 -12 -55 22 -63 52 -13 66 -36 31 -54 -16 -9 -26
-8 -45 5 -13 8 -24 11 -24 6 0 -12 33 -31 54 -31 23 0 57 37 50 55 -3 8 -24
20 -45 26 -27 9 -39 18 -39 31 0 24 27 34 51 20 26 -16 34 -15 19 3 -15 19
-50 19 -74 2z"/>
<path d="M1336 4361 c-3 -5 1 -11 9 -15 9 -3 15 0 15 9 0 16 -16 20 -24 6z"/>
<path d="M1500 4330 c0 -30 16 -50 42 -50 34 0 15 72 -20 75 -17 1 -22 -4 -22
-25z"/>
<path d="M1570 3699 c14 -7 30 -13 35 -13 6 -1 9 -15 7 -31 l-3 -30 21 23 21
22 33 -25 c26 -20 43 -25 74 -23 51 4 42 16 -36 51 -59 27 -206 51 -152 26z"/>
<path d="M1510 3679 c-11 -19 -10 -20 9 -9 22 11 29 30 11 30 -5 0 -14 -9 -20
-21z"/>
<path d="M1570 3648 c-11 -12 -23 -18 -27 -15 -3 4 -18 -3 -31 -15 -14 -13
-22 -17 -17 -9 5 9 -1 7 -19 -4 -14 -10 -26 -27 -26 -39 0 -11 -5 -28 -10 -36
-7 -10 -8 -1 -4 30 l6 45 -27 -39 c-14 -21 -24 -45 -21 -53 3 -8 1 -11 -4 -8
-6 3 -10 -2 -10 -13 0 -10 7 -19 15 -19 8 0 15 6 15 13 0 7 5 16 12 20 7 5 8
3 3 -6 -6 -10 -4 -12 8 -7 11 4 17 1 17 -8 0 -10 10 -15 30 -15 17 0 30 -5 30
-12 0 -7 11 0 25 16 13 16 22 32 20 36 -3 4 2 14 11 21 13 10 17 10 24 0 5 -8
10 -9 14 -3 3 6 15 8 26 5 21 -6 26 10 14 41 -8 22 -25 20 -18 -1 3 -11 0 -9
-7 3 -6 12 -25 25 -42 28 l-31 6 27 26 c15 13 27 27 27 29 0 10 -10 4 -30 -17z
m-39 -45 c-12 -20 -14 -14 -5 12 4 9 9 14 11 11 3 -2 0 -13 -6 -23z"/>
<path d="M1646 3644 c-8 -22 1 -31 16 -16 9 9 9 15 1 23 -7 7 -12 5 -17 -7z"/>
<path d="M1283 3594 c-48 -48 -54 -58 -40 -65 24 -14 73 15 93 54 9 17 23 40
32 50 14 16 13 17 -7 17 -14 0 -44 -22 -78 -56z"/>
<path d="M2420 3505 c0 -108 1 -115 20 -115 19 0 20 7 20 115 0 108 -1 115
-20 115 -19 0 -20 -7 -20 -115z"/>
<path d="M3206 3545 c-25 -42 -46 -82 -46 -90 0 -10 15 -15 53 -17 45 -3 52
-6 55 -25 5 -32 32 -30 32 2 0 16 6 25 15 25 8 0 15 5 15 10 0 6 -7 10 -15 10
-12 0 -15 16 -15 80 0 77 -1 80 -24 80 -18 0 -33 -16 -70 -75z m60 -71 c-6
-17 -66 -19 -66 -2 0 6 15 34 33 62 l32 51 3 -49 c2 -27 1 -55 -2 -62z"/>
<path d="M1347 3576 c-4 -10 -7 -25 -6 -34 0 -11 4 -9 10 7 5 13 8 29 6 35 -2
5 -6 2 -10 -8z"/>
<path d="M2288 3563 c-10 -2 -18 -10 -18 -16 0 -8 -4 -7 -12 1 -32 32 -38 14
-38 -103 0 -108 1 -115 20 -115 17 0 20 7 20 42 0 33 3 39 12 30 21 -21 65
-14 87 14 52 66 3 166 -71 147z m51 -55 c30 -53 -21 -114 -65 -78 -17 15 -19
81 -2 98 19 19 51 10 67 -20z"/>
<path d="M2545 3560 c-12 -4 -27 -15 -34 -24 -11 -14 -11 -16 3 -16 9 0 25 6
36 12 15 9 25 10 37 2 28 -17 26 -33 -4 -39 -67 -14 -78 -20 -81 -48 -6 -50
39 -73 89 -47 13 7 19 7 19 0 0 -5 7 -10 15 -10 22 0 21 132 -1 154 -8 9 -19
16 -24 16 -5 0 -14 2 -22 4 -7 3 -22 1 -33 -4z m65 -96 c0 -29 -39 -58 -65
-48 -18 7 -20 40 -2 47 17 7 67 8 67 1z"/>
<path d="M2895 3560 c-26 -10 -41 -28 -49 -61 -7 -34 11 -86 34 -99 40 -21
110 -5 110 25 0 19 -17 19 -37 0 -24 -25 -72 -3 -73 33 0 8 19 12 60 12 64 0
69 5 51 53 -6 14 -23 29 -42 36 -17 6 -32 11 -33 10 -1 0 -10 -4 -21 -9z m59
-36 c26 -25 19 -34 -29 -34 -46 0 -58 13 -33 38 17 17 44 15 62 -4z"/>
<path d="M3092 3554 c-12 -8 -22 -10 -22 -5 0 6 -7 11 -15 11 -12 0 -15 -16
-15 -85 0 -69 3 -85 15 -85 12 0 15 13 15 58 0 59 18 92 48 92 7 0 12 7 12 15
0 19 -10 19 -38 -1z"/>
<path d="M2670 3552 c0 -5 13 -45 30 -90 27 -73 28 -83 14 -97 -8 -8 -20 -15
-25 -15 -5 0 -9 -4 -9 -10 0 -14 46 -12 57 3 6 6 25 53 43 102 18 50 35 96 38
104 3 8 -1 12 -13 10 -12 -3 -25 -25 -40 -69 l-22 -65 -22 68 c-14 41 -28 67
-37 67 -8 0 -14 -4 -14 -8z"/>
<path d="M1339 3513 c-1 -5 -1 -12 0 -17 1 -4 -3 -14 -9 -21 -12 -15 -5 -76
15 -113 10 -20 11 -9 11 67 -1 50 -4 91 -8 91 -5 0 -9 -3 -9 -7z"/>
<path d="M1670 3482 c0 -11 9 -18 22 -19 13 -1 24 -7 26 -13 2 -5 8 -10 12
-10 5 0 2 13 -7 28 -18 32 -53 41 -53 14z"/>
<path d="M1720 3421 c0 -6 5 -13 10 -16 6 -3 10 -18 11 -33 0 -24 1 -25 9 -7
16 37 12 65 -10 65 -11 0 -20 -4 -20 -9z"/>
<path d="M577 3346 c-26 -40 -47 -83 -47 -95 0 -19 6 -21 55 -21 48 0 55 -2
55 -20 0 -13 7 -20 20 -20 12 0 20 7 20 16 0 9 8 23 18 30 16 13 16 15 0 28
-14 10 -18 28 -18 85 l0 71 -28 0 c-24 0 -35 -11 -75 -74z m60 -73 c-3 -2 -19
-3 -36 -1 l-31 3 33 50 32 49 3 -48 c2 -26 1 -50 -1 -53z"/>
<path d="M1920 3390 c0 -5 7 -10 15 -10 8 0 15 5 15 10 0 6 -7 10 -15 10 -8 0
-15 -4 -15 -10z"/>
<path d="M1618 3363 c6 -2 18 -2 25 0 6 3 1 5 -13 5 -14 0 -19 -2 -12 -5z"/>
<path d="M1443 3353 c9 -2 23 -2 30 0 6 3 -1 5 -18 5 -16 0 -22 -2 -12 -5z"/>
<path d="M1613 3343 c-27 -10 -11 -18 32 -15 25 2 43 7 41 11 -5 8 -56 11 -73
4z"/>
<path d="M1423 3333 c-26 -10 -12 -22 20 -17 17 2 37 5 44 6 7 1 10 5 7 10 -6
9 -51 10 -71 1z"/>
<path d="M1906 3313 c-11 -3 -26 -12 -34 -19 -12 -13 -16 -13 -26 1 -10 14
-14 14 -36 -2 -14 -10 -31 -18 -38 -19 -23 -4 -42 -26 -42 -48 0 -11 -8 -35
-19 -51 -10 -17 -23 -46 -30 -65 -7 -21 -25 -44 -46 -58 -19 -12 -35 -29 -35
-37 0 -30 -43 -14 -101 36 -33 28 -59 57 -59 64 0 7 -6 18 -14 24 -8 7 -22 27
-31 46 -19 41 -38 44 -95 15 -22 -11 -50 -20 -64 -20 -58 0 -37 -70 44 -151
226 -226 603 -108 671 211 16 74 8 86 -45 73z m-306 -359 c0 -8 -5 -12 -10 -9
-6 4 -8 11 -5 16 9 14 15 11 15 -7z"/>
<path d="M1321 3266 c-9 -10 -8 -15 2 -19 23 -9 41 8 24 22 -11 9 -17 8 -26
-3z"/>
<path d="M1490 3165 c7 -8 17 -15 22 -15 6 0 5 7 -2 15 -7 8 -17 15 -22 15 -6
0 -5 -7 2 -15z"/>
<path d="M2248 3159 c-22 -12 -23 -52 -4 -68 13 -11 12 -15 -5 -32 -10 -10
-19 -26 -19 -34 0 -23 37 -55 63 -55 57 0 89 63 47 93 -18 13 -19 16 -5 27 18
15 20 51 3 68 -15 15 -57 15 -80 1z m72 -18 c19 -36 -11 -68 -51 -56 -22 7
-27 60 -6 68 26 11 47 6 57 -12z m0 -85 c6 -8 10 -25 8 -38 -3 -20 -9 -23 -43
-23 -34 0 -40 3 -43 23 -4 30 14 52 43 52 12 0 28 -7 35 -14z"/>
<path d="M2418 3159 c-10 -5 -18 -18 -18 -27 0 -14 4 -12 19 7 14 18 24 22 44
18 50 -13 40 -62 -27 -126 -52 -50 -48 -61 24 -61 33 0 60 4 60 10 0 6 -23 10
-51 10 l-51 0 46 52 c25 29 46 63 46 75 0 44 -50 67 -92 42z"/>
<path d="M2585 3150 c-23 -25 -30 -107 -13 -140 8 -13 26 -29 41 -34 22 -8 31
-6 52 14 21 20 25 33 25 80 0 67 -19 100 -59 100 -15 0 -36 -9 -46 -20z m83
-20 c15 -29 10 -103 -8 -125 -18 -21 -57 -19 -70 4 -15 30 -12 104 6 129 20
29 54 25 72 -8z"/>
<path d="M3165 3160 c3 -5 8 -10 11 -10 2 0 4 5 4 10 0 6 -5 10 -11 10 -5 0
-7 -4 -4 -10z"/>
<path d="M3411 3143 c0 -15 -8 -23 -18 -23 -17 -1 -17 -1 0 -11 13 -7 17 -23
17 -63 0 -52 20 -89 38 -72 4 4 -1 12 -11 17 -25 14 -25 116 1 122 15 4 15 5
0 6 -9 0 -19 11 -21 24 l-4 22 -2 -22z"/>
<path d="M2832 3020 c1 -71 3 -91 7 -61 5 39 8 42 20 28 31 -39 91 -2 91 56 0
61 -53 100 -88 65 -10 -10 -15 -10 -22 2 -6 10 -9 -21 -8 -90z m78 80 c39 -21
32 -102 -10 -113 -27 -7 -60 24 -60 56 0 25 26 67 41 67 6 0 19 -4 29 -10z"/>
<path d="M3010 3100 c-43 -43 -12 -130 46 -130 27 0 64 44 64 75 0 33 -37 75
-66 75 -13 0 -33 -9 -44 -20z m74 -6 c9 -8 16 -31 16 -49 0 -65 -75 -82 -91
-21 -17 62 35 110 75 70z"/>
<path d="M3173 3045 c0 -44 2 -61 4 -37 2 23 2 59 0 80 -2 20 -4 1 -4 -43z"/>
<path d="M3242 3045 c1 -44 3 -60 5 -35 5 70 11 88 34 95 34 11 49 -12 49 -76
0 -33 4 -59 10 -59 17 0 12 116 -6 134 -17 18 -42 20 -64 6 -9 -6 -17 -5 -22
3 -4 7 -7 -24 -6 -68z"/>
<path d="M3506 3107 c-25 -19 -12 -55 22 -63 52 -13 66 -36 31 -54 -16 -9 -26
-8 -45 5 -13 8 -24 11 -24 6 0 -12 33 -31 54 -31 23 0 57 37 50 55 -3 8 -24
20 -45 26 -27 9 -39 18 -39 31 0 24 27 34 51 20 26 -16 34 -15 19 3 -15 19
-50 19 -74 2z"/>
<path d="M1631 2313 c8 -9 27 -30 43 -47 15 -17 40 -56 54 -86 23 -48 26 -67
25 -148 -3 -149 -52 -222 -178 -262 -97 -31 -23 -31 121 0 45 10 98 42 125 75
43 51 61 78 46 66 -21 -16 -21 -5 -2 29 10 18 14 20 15 8 0 -9 3 -19 8 -21 4
-3 7 43 7 101 0 128 -14 165 -87 222 -46 37 -141 80 -175 80 -13 0 -14 -2 -2
-17z"/>
<path d="M1350 2276 l-55 -35 -27 -98 c-15 -54 -32 -136 -38 -183 -6 -47 -18
-104 -26 -126 -15 -39 -15 -44 6 -84 28 -55 105 -132 159 -160 36 -18 45 -19
59 -8 14 11 15 10 8 -7 -6 -16 -5 -17 5 -8 7 7 18 9 28 4 43 -22 111 -31 161
-21 55 10 146 47 138 55 -3 3 -23 -3 -46 -13 -35 -16 -53 -17 -123 -10 -101
11 -150 33 -164 73 -5 17 -16 36 -22 43 -7 7 -13 28 -14 45 0 18 -2 44 -4 60
-4 33 4 34 40 5 25 -19 24 -16 -9 26 -61 80 -89 225 -49 253 10 7 23 16 28 21
6 5 16 7 23 4 17 -5 15 15 -1 21 -8 3 -28 4 -46 3 -24 -2 -31 2 -29 13 3 12
15 16 46 16 48 0 50 15 4 29 -38 11 -39 18 -7 74 13 23 21 42 17 42 -4 0 -32
-15 -62 -34z"/>
<path d="M2420 2135 c0 -108 1 -115 20 -115 19 0 20 7 20 115 0 108 -1 115
-20 115 -19 0 -20 -7 -20 -115z"/>
<path d="M3175 2216 c-4 -18 -5 -44 -3 -57 3 -21 7 -24 41 -21 21 2 44 -2 52
-8 18 -15 19 -52 3 -68 -17 -17 -57 -15 -64 3 -6 16 -44 21 -44 7 0 -20 48
-52 78 -52 35 0 71 29 73 58 4 62 -25 96 -78 90 -30 -4 -33 -2 -33 24 0 27 2
28 50 28 38 0 50 4 50 15 0 12 -13 15 -60 15 l-59 0 -6 -34z"/>
<path d="M1553 2219 c-41 -12 -52 -28 -15 -23 15 2 47 7 71 10 30 4 39 9 30
15 -17 11 -44 10 -86 -2z"/>
<path d="M2288 2193 c-10 -2 -18 -10 -18 -16 0 -8 -4 -7 -12 1 -32 32 -38 14
-38 -103 0 -108 1 -115 20 -115 17 0 20 7 20 42 0 33 3 39 12 30 21 -21 65
-14 87 14 52 66 3 166 -71 147z m51 -55 c30 -53 -21 -114 -65 -78 -17 15 -19
81 -2 98 19 19 51 10 67 -20z"/>
<path d="M2545 2190 c-12 -4 -27 -15 -34 -24 -11 -14 -11 -16 3 -16 9 0 25 6
36 12 15 9 25 10 37 2 28 -17 26 -33 -4 -39 -67 -14 -78 -20 -81 -48 -6 -50
39 -73 89 -47 13 7 19 7 19 0 0 -5 7 -10 15 -10 22 0 21 132 -1 154 -8 9 -19
16 -24 16 -5 0 -14 2 -22 4 -7 3 -22 1 -33 -4z m65 -96 c0 -29 -39 -58 -65
-48 -18 7 -20 40 -2 47 17 7 67 8 67 1z"/>
<path d="M2895 2190 c-26 -10 -41 -28 -49 -61 -7 -34 11 -86 34 -99 40 -21
110 -5 110 25 0 19 -17 19 -37 0 -24 -25 -72 -3 -73 33 0 8 19 12 60 12 64 0
69 5 51 53 -6 14 -23 29 -42 36 -17 6 -32 11 -33 10 -1 0 -10 -4 -21 -9z m59
-36 c26 -25 19 -34 -29 -34 -46 0 -58 13 -33 38 17 17 44 15 62 -4z"/>
<path d="M3092 2184 c-12 -8 -22 -10 -22 -5 0 6 -7 11 -15 11 -12 0 -15 -16
-15 -85 0 -69 3 -85 15 -85 12 0 15 13 15 58 0 59 18 92 48 92 7 0 12 7 12 15
0 19 -10 19 -38 -1z"/>
<path d="M2670 2182 c0 -5 13 -45 30 -90 27 -73 28 -83 14 -97 -8 -8 -20 -15
-25 -15 -5 0 -9 -4 -9 -10 0 -14 46 -12 57 3 6 6 25 53 43 102 18 50 35 96 38
104 3 8 -1 12 -13 10 -12 -3 -25 -25 -40 -69 l-22 -65 -22 68 c-14 41 -28 67
-37 67 -8 0 -14 -4 -14 -8z"/>
<path d="M1553 2159 c-21 -22 -15 -29 25 -28 42 1 80 13 66 21 -23 15 -80 19
-91 7z"/>
<path d="M556 2028 c-3 -13 -6 -40 -6 -61 l0 -39 40 7 c46 8 70 -5 70 -39 0
-43 -39 -59 -71 -30 -10 9 -26 14 -36 12 -16 -3 -15 -7 9 -31 53 -54 138 -24
138 48 0 48 -31 78 -76 73 -32 -4 -34 -2 -34 24 0 27 2 28 50 28 38 0 50 4 50
15 0 12 -14 15 -64 15 -58 0 -64 -2 -70 -22z"/>
<path d="M1500 2020 c0 -5 7 -10 16 -10 8 0 12 5 9 10 -3 6 -10 10 -16 10 -5
0 -9 -4 -9 -10z"/>
<path d="M1460 1932 c-21 -17 -21 -18 -3 -34 17 -15 23 -15 88 8 39 13 71 24
73 24 2 0 0 4 -3 10 -4 6 -21 2 -45 -10 -44 -22 -104 -27 -98 -8 3 7 15 15 29
19 22 6 22 7 3 8 -12 1 -32 -7 -44 -17z"/>
<path d="M2268 1793 c28 -2 52 -6 52 -9 0 -2 -18 -41 -41 -85 -22 -44 -38 -86
-36 -92 4 -12 97 164 97 183 0 6 -25 9 -62 8 l-63 -2 53 -3z"/>
<path d="M2394 1775 c-15 -23 -15 -27 -1 -49 14 -21 14 -26 2 -36 -41 -34 6
-98 62 -86 38 9 56 38 43 71 -5 14 -14 25 -20 25 -7 0 -5 9 4 22 20 28 20 43
0 62 -24 25 -71 20 -90 -9z m74 3 c32 -32 -2 -79 -43 -60 -39 18 -27 72 15 72
9 0 21 -5 28 -12z m3 -88 c38 -21 17 -70 -31 -70 -46 0 -64 34 -34 64 18 19
38 20 65 6z"/>
<path d="M2566 1778 c-10 -14 -16 -44 -16 -78 0 -47 4 -60 25 -80 21 -20 30
-22 52 -14 15 5 33 21 41 34 17 33 10 115 -13 140 -24 27 -70 26 -89 -2z m78
-10 c19 -27 21 -107 3 -132 -18 -25 -58 -17 -75 14 -15 29 -10 103 8 125 18
22 46 18 64 -7z"/>
<path d="M3150 1789 c0 -5 5 -7 10 -4 6 3 10 8 10 11 0 2 -4 4 -10 4 -5 0 -10
-5 -10 -11z"/>
<path d="M3390 1771 c0 -11 -6 -22 -12 -24 -10 -4 -10 -6 0 -6 8 -1 12 -20 12
-59 0 -32 5 -63 12 -70 15 -15 38 -16 38 -2 0 6 -7 10 -15 10 -24 0 -21 117 3
123 16 4 16 5 0 6 -11 1 -18 9 -18 21 0 11 -4 20 -10 20 -5 0 -10 -9 -10 -19z"/>
<path d="M1880 1742 c1 -35 2 -36 15 -18 19 25 19 42 0 50 -12 4 -15 -3 -15
-32z"/>
<path d="M2810 1650 c0 -60 4 -100 10 -100 6 0 10 18 10 41 0 37 1 39 16 25
36 -36 88 -1 88 59 0 58 -58 97 -92 63 -9 -9 -12 -9 -12 0 0 7 -4 12 -10 12
-6 0 -10 -40 -10 -100z m94 71 c11 -12 16 -31 14 -51 -7 -77 -88 -68 -88 10 0
56 40 78 74 41z"/>
<path d="M2995 1730 c-59 -65 24 -171 85 -110 24 24 26 77 4 108 -19 28 -65
29 -89 2z m75 -10 c34 -34 22 -88 -23 -103 -43 -16 -75 66 -40 105 21 23 38
23 63 -2z"/>
<path d="M3150 1675 c0 -43 4 -75 10 -75 6 0 10 32 10 75 0 43 -4 75 -10 75
-6 0 -10 -32 -10 -75z"/>
<path d="M3220 1675 c0 -43 4 -75 10 -75 6 0 10 26 10 58 0 60 11 82 41 82 25
0 33 -17 40 -85 l6 -60 1 66 c2 69 -7 89 -43 89 -12 0 -26 -5 -33 -12 -9 -9
-12 -9 -12 0 0 7 -4 12 -10 12 -6 0 -10 -32 -10 -75z"/>
<path d="M3490 1735 c-20 -24 -7 -49 30 -61 37 -12 51 -41 28 -55 -20 -13 -35
-11 -54 8 -12 12 -16 13 -13 4 8 -23 34 -34 63 -27 54 13 45 60 -14 80 -38 12
-45 32 -18 50 13 8 23 8 38 -2 11 -7 20 -8 20 -3 0 23 -62 28 -80 6z"/>
<path d="M2420 765 c0 -108 1 -115 20 -115 19 0 20 7 20 115 0 108 -1 115 -20
115 -19 0 -20 -7 -20 -115z"/>
<path d="M3190 860 c-26 -26 -34 -60 -28 -122 6 -61 32 -88 83 -88 40 0 75 38
75 80 0 54 -77 91 -114 54 -14 -13 -16 -14 -16 0 0 28 18 63 36 70 11 4 28 -1
46 -14 33 -25 49 -26 41 -2 -15 44 -87 58 -123 22z m91 -111 c18 -34 -3 -69
-41 -69 -36 0 -57 38 -40 71 15 27 66 26 81 -2z"/>
<path d="M1640 855 c0 -16 35 -38 51 -33 11 4 -27 48 -41 48 -6 0 -10 -7 -10
-15z"/>
<path d="M1444 845 c-15 -11 -16 -14 -3 -15 8 0 24 7 35 15 15 11 16 14 3 15
-8 0 -24 -7 -35 -15z"/>
<path d="M2288 823 c-10 -2 -18 -10 -18 -16 0 -8 -4 -7 -12 1 -32 32 -38 14
-38 -103 0 -108 1 -115 20 -115 17 0 20 7 20 42 0 33 3 39 12 30 21 -21 65
-14 87 14 52 66 3 166 -71 147z m51 -55 c30 -53 -21 -114 -65 -78 -17 15 -19
81 -2 98 19 19 51 10 67 -20z"/>
<path d="M2545 820 c-12 -4 -27 -15 -34 -24 -11 -14 -11 -16 3 -16 9 0 25 6
36 12 15 9 25 10 37 2 28 -17 26 -33 -4 -39 -67 -14 -78 -20 -81 -48 -6 -50
39 -73 89 -47 13 7 19 7 19 0 0 -5 7 -10 15 -10 22 0 21 132 -1 154 -8 9 -19
16 -24 16 -5 0 -14 2 -22 4 -7 3 -22 1 -33 -4z m65 -96 c0 -29 -39 -58 -65
-48 -18 7 -20 40 -2 47 17 7 67 8 67 1z"/>
<path d="M2895 820 c-26 -10 -41 -28 -49 -61 -7 -34 11 -86 34 -99 40 -21 110
-5 110 25 0 19 -17 19 -37 0 -24 -25 -72 -3 -73 33 0 8 19 12 60 12 64 0 69 5
51 53 -6 14 -23 29 -42 36 -17 6 -32 11 -33 10 -1 0 -10 -4 -21 -9z m59 -36
c26 -25 19 -34 -29 -34 -46 0 -58 13 -33 38 17 17 44 15 62 -4z"/>
<path d="M3092 814 c-12 -8 -22 -10 -22 -5 0 6 -7 11 -15 11 -12 0 -15 -16
-15 -85 0 -69 3 -85 15 -85 12 0 15 13 15 58 0 59 18 92 48 92 7 0 12 7 12 15
0 19 -10 19 -38 -1z"/>
<path d="M2670 812 c0 -5 13 -45 30 -90 27 -73 28 -83 14 -97 -8 -8 -20 -15
-25 -15 -5 0 -9 -4 -9 -10 0 -14 46 -12 57 3 6 6 25 53 43 102 18 50 35 96 38
104 3 8 -1 12 -13 10 -12 -3 -25 -25 -40 -69 l-22 -65 -22 68 c-14 41 -28 67
-37 67 -8 0 -14 -4 -14 -8z"/>
<path d="M1745 743 c15 -48 11 -70 -8 -55 -7 4 -28 9 -47 10 l-35 1 37 -17
c38 -17 56 -46 60 -94 1 -15 8 -30 16 -33 9 -3 12 1 8 13 -3 9 -6 49 -7 87 -1
62 -19 135 -33 135 -3 0 1 -21 9 -47z"/>
<path d="M1445 700 c-29 -4 -41 -10 -44 -25 -3 -16 -1 -17 11 -7 21 17 96 23
102 9 2 -7 5 -5 5 4 1 20 -22 26 -74 19z"/>
<path d="M1375 673 c2 -17 0 -33 -6 -35 -7 -2 -8 -15 -3 -33 l8 -30 7 39 c3
22 2 51 -2 65 -8 24 -9 23 -4 -6z"/>
<path d="M567 668 c-52 -40 -47 -191 8 -212 35 -13 76 -6 100 19 61 60 -10
155 -86 115 -16 -9 -19 -7 -19 8 0 22 30 52 52 52 9 0 21 -7 28 -15 15 -19 40
-20 40 -2 0 39 -85 63 -123 35z m83 -113 c15 -19 6 -61 -16 -69 -42 -16 -75
24 -54 64 13 24 52 27 70 5z"/>
<path d="M1616 664 c-9 -8 -16 -21 -16 -27 0 -7 5 -5 10 4 12 21 70 16 87 -8
7 -9 16 -14 19 -10 11 10 -17 37 -38 37 -10 0 -16 5 -13 10 10 16 -32 11 -49
-6z"/>
<path d="M1430 645 c0 -8 2 -15 4 -15 2 0 6 7 10 15 3 8 1 15 -4 15 -6 0 -10
-7 -10 -15z"/>
<path d="M1460 628 c0 -4 7 -8 15 -8 8 0 15 4 15 8 0 5 -7 9 -15 9 -8 0 -15
-4 -15 -9z"/>
<path d="M1670 630 c0 -6 -4 -8 -10 -5 -5 3 -10 1 -10 -4 0 -6 9 -11 20 -11
21 0 27 15 10 25 -5 3 -10 1 -10 -5z"/>
<path d="M1751 534 c0 -11 3 -14 6 -6 3 7 2 16 -1 19 -3 4 -6 -2 -5 -13z"/>
<path d="M1520 525 c0 -2 10 -10 23 -16 20 -11 21 -11 8 4 -13 16 -31 23 -31
12z"/>
<path d="M1583 513 c-7 -2 -13 -9 -13 -14 0 -14 26 -10 40 6 10 12 10 15 -1
14 -8 0 -20 -3 -26 -6z"/>
<path d="M1736 493 c-4 -9 -2 -21 4 -27 7 -7 10 -2 10 17 0 31 -5 34 -14 10z"/>
<path d="M1482 435 c12 -13 37 -20 85 -24 l68 -6 -30 -17 c-26 -15 -27 -17 -9
-18 13 0 32 14 48 35 15 19 23 35 17 35 -5 0 -13 -5 -17 -11 -8 -14 -142 -3
-164 14 -9 7 -9 4 2 -8z"/>
<path d="M2268 423 c28 -2 52 -6 52 -9 0 -2 -20 -45 -45 -94 -25 -50 -41 -90
-35 -90 10 0 100 171 100 190 0 6 -25 9 -62 8 l-63 -2 53 -3z"/>
<path d="M2396 414 c-3 -9 -6 -29 -6 -45 0 -27 3 -29 38 -29 43 0 62 -14 62
-45 0 -12 -5 -26 -12 -33 -18 -18 -66 -15 -77 5 -5 10 -12 15 -16 11 -10 -10
33 -48 54 -48 30 0 64 33 64 63 0 41 -31 70 -68 64 -30 -5 -31 -4 -27 28 4 32
6 34 51 38 l46 3 -51 2 c-39 2 -53 -2 -58 -14z"/>
<path d="M2584 422 c-21 -14 -34 -51 -34 -97 0 -35 6 -51 25 -70 31 -31 49
-31 80 0 19 19 25 35 25 70 0 68 -23 105 -65 105 -11 0 -25 -4 -31 -8z m60
-18 c23 -22 25 -116 4 -141 -13 -17 -53 -17 -66 0 -11 13 -16 53 -14 99 2 29
25 58 47 58 7 0 21 -7 29 -16z"/>
<path d="M3155 420 c3 -5 8 -10 11 -10 2 0 4 5 4 10 0 6 -5 10 -11 10 -5 0 -7
-4 -4 -10z"/>
<path d="M3390 401 c0 -11 -6 -22 -12 -24 -10 -4 -10 -6 0 -6 8 -1 12 -19 12
-55 0 -36 5 -60 16 -70 18 -18 34 -21 34 -6 0 6 -7 10 -15 10 -24 0 -21 117 3
123 16 4 16 5 0 6 -11 1 -18 9 -18 21 0 11 -4 20 -10 20 -5 0 -10 -9 -10 -19z"/>
<path d="M1668 348 c-21 -29 -50 -61 -67 -71 -34 -20 -81 -22 -100 -4 -11 10
-11 8 -2 -11 7 -13 24 -28 39 -35 15 -6 32 -19 39 -27 10 -13 12 -13 18 2 4 9
16 19 28 22 12 3 33 22 46 42 l23 37 -22 -6 c-20 -5 -21 -4 -6 16 9 12 23 32
32 44 9 12 14 27 12 33 -2 7 -20 -12 -40 -42z"/>
<path d="M2810 280 c0 -60 4 -100 10 -100 6 0 10 19 10 42 0 39 1 40 18 25 26
-24 47 -21 71 9 27 34 27 78 1 104 -22 22 -42 25 -71 10 -13 -7 -19 -7 -19 0
0 5 -4 10 -10 10 -6 0 -10 -40 -10 -100z m95 74 c22 -23 16 -83 -10 -100 -31
-21 -65 6 -65 51 0 55 41 82 75 49z"/>
<path d="M2997 362 c-24 -26 -22 -87 3 -112 41 -41 104 -9 104 53 0 66 -68
103 -107 59z m71 -8 c43 -30 12 -124 -35 -107 -45 15 -57 69 -23 103 24 24 29
24 58 4z"/>
<path d="M3150 305 c0 -43 4 -75 10 -75 6 0 10 32 10 75 0 43 -4 75 -10 75 -6
0 -10 -32 -10 -75z"/>
<path d="M3220 305 c0 -90 18 -101 22 -14 3 69 22 94 56 73 12 -8 18 -27 20
-73 2 -33 7 -61 12 -61 14 0 12 91 -3 120 -14 28 -51 38 -73 20 -10 -9 -14 -9
-14 -1 0 6 -4 11 -10 11 -6 0 -10 -32 -10 -75z"/>
<path d="M3492 368 c-21 -21 -14 -48 16 -59 65 -26 76 -41 42 -59 -17 -9 -27
-8 -47 5 -17 12 -24 13 -21 4 15 -44 91 -34 96 13 3 24 -2 28 -37 39 -29 9
-41 18 -41 31 0 24 27 34 51 20 26 -16 34 -15 19 3 -15 18 -61 20 -78 3z"/>
</g>
</svg>
