<svg width="371" height="280" viewBox="0 0 371 280" fill="none" xmlns="http://www.w3.org/2000/svg">
<g filter="url(#filter0_d_224_1163)">
<path fill-rule="evenodd" clip-rule="evenodd" d="M78.7796 98.419L65.8133 110.683C65.0348 111.419 63.8143 111.411 63.0456 110.665L13.6067 62.6513C12.7227 61.7928 12.8178 60.3469 13.8066 59.6116L86.0629 5.88144C86.2053 5.77557 86.3565 5.69168 86.5128 5.6289C87.1359 5.23018 87.8757 5 88.6664 5H278.238C279.37 5 280.399 5.47236 281.13 6.23709L356.376 65.3926C357.409 66.2043 357.392 67.7739 356.342 68.5633L301.481 109.826C300.613 110.479 299.383 110.32 298.71 109.468L289.606 97.9532L302.558 254.614C302.753 256.966 300.88 258.974 298.521 258.944L72.6376 256.054C70.3456 256.025 68.547 254.079 68.6973 251.792L78.7796 98.419Z" fill="#ECEFF7"/>
</g>
<path d="M188.125 176.125V159.875C191.292 159.625 193.583 157.792 195 154.375C196 151.875 196.5 147.125 196.5 140.125C194.167 141.208 191.375 141.75 188.125 141.75V125.5C188.875 125.25 189.667 124.917 190.5 124.5C193.667 122.583 195.25 119.458 195.25 115.125C195.25 114.292 195.167 113.458 195 112.625C194.167 108.375 191.875 105.75 188.125 104.75V88.5C193.375 88.5 197.833 89.875 201.5 92.625C209.417 98.625 213.375 112.208 213.375 133.375C213.375 134.875 213.375 136.292 213.375 137.625C212.792 163.292 204.375 176.125 188.125 176.125ZM181.375 141.75C175.792 141.75 171 140.208 167 137.125C160.833 132.208 157.75 124.833 157.75 115C157.75 108.167 159.708 102.25 163.625 97.25C168.292 91.4167 174.208 88.5 181.375 88.5V104.75C180.708 104.917 180.042 105.208 179.375 105.625C175.958 107.458 174.25 110.625 174.25 115.125C174.25 115.958 174.333 116.833 174.5 117.75C175.417 121.917 177.708 124.5 181.375 125.5V141.75ZM160.75 162.875L174 153.875C174.25 154.458 174.583 155.083 175 155.75C176.667 158.417 178.792 159.792 181.375 159.875V176.125C172.458 175.792 165.583 171.375 160.75 162.875Z" fill="#5050FF"/>
<path d="M143.296 230.252C141.448 230.252 139.792 229.952 138.328 229.352C136.864 228.752 135.688 227.864 134.8 226.688C133.936 225.512 133.48 224.096 133.432 222.44H139.984C140.08 223.376 140.404 224.096 140.956 224.6C141.508 225.08 142.228 225.32 143.116 225.32C144.028 225.32 144.748 225.116 145.276 224.708C145.804 224.276 146.068 223.688 146.068 222.944C146.068 222.32 145.852 221.804 145.42 221.396C145.012 220.988 144.496 220.652 143.872 220.388C143.272 220.124 142.408 219.824 141.28 219.488C139.648 218.984 138.316 218.48 137.284 217.976C136.252 217.472 135.364 216.728 134.62 215.744C133.876 214.76 133.504 213.476 133.504 211.892C133.504 209.54 134.356 207.704 136.06 206.384C137.764 205.04 139.984 204.368 142.72 204.368C145.504 204.368 147.748 205.04 149.452 206.384C151.156 207.704 152.068 209.552 152.188 211.928H145.528C145.48 211.112 145.18 210.476 144.628 210.02C144.076 209.54 143.368 209.3 142.504 209.3C141.76 209.3 141.16 209.504 140.704 209.912C140.248 210.296 140.02 210.86 140.02 211.604C140.02 212.42 140.404 213.056 141.172 213.512C141.94 213.968 143.14 214.46 144.772 214.988C146.404 215.54 147.724 216.068 148.732 216.572C149.764 217.076 150.652 217.808 151.396 218.768C152.14 219.728 152.512 220.964 152.512 222.476C152.512 223.916 152.14 225.224 151.396 226.4C150.676 227.576 149.62 228.512 148.228 229.208C146.836 229.904 145.192 230.252 143.296 230.252ZM168.648 209.696C170.952 209.696 172.8 210.464 174.192 212C175.584 213.512 176.28 215.6 176.28 218.264V230H170.16V219.092C170.16 217.748 169.812 216.704 169.116 215.96C168.42 215.216 167.484 214.844 166.308 214.844C165.132 214.844 164.196 215.216 163.5 215.96C162.804 216.704 162.456 217.748 162.456 219.092V230H156.3V203.36H162.456V212.612C163.08 211.724 163.932 211.016 165.012 210.488C166.092 209.96 167.304 209.696 168.648 209.696ZM189.702 230.288C187.734 230.288 185.958 229.868 184.374 229.028C182.814 228.188 181.578 226.988 180.666 225.428C179.778 223.868 179.334 222.044 179.334 219.956C179.334 217.892 179.79 216.08 180.702 214.52C181.614 212.936 182.862 211.724 184.446 210.884C186.03 210.044 187.806 209.624 189.774 209.624C191.742 209.624 193.518 210.044 195.102 210.884C196.686 211.724 197.934 212.936 198.846 214.52C199.758 216.08 200.214 217.892 200.214 219.956C200.214 222.02 199.746 223.844 198.81 225.428C197.898 226.988 196.638 228.188 195.03 229.028C193.446 229.868 191.67 230.288 189.702 230.288ZM189.702 224.96C190.878 224.96 191.874 224.528 192.69 223.664C193.53 222.8 193.95 221.564 193.95 219.956C193.95 218.348 193.542 217.112 192.726 216.248C191.934 215.384 190.95 214.952 189.774 214.952C188.574 214.952 187.578 215.384 186.786 216.248C185.994 217.088 185.598 218.324 185.598 219.956C185.598 221.564 185.982 222.8 186.75 223.664C187.542 224.528 188.526 224.96 189.702 224.96ZM212.624 230.288C210.656 230.288 208.88 229.868 207.296 229.028C205.736 228.188 204.5 226.988 203.588 225.428C202.7 223.868 202.256 222.044 202.256 219.956C202.256 217.892 202.712 216.08 203.624 214.52C204.536 212.936 205.784 211.724 207.368 210.884C208.952 210.044 210.728 209.624 212.696 209.624C214.664 209.624 216.44 210.044 218.024 210.884C219.608 211.724 220.856 212.936 221.768 214.52C222.68 216.08 223.136 217.892 223.136 219.956C223.136 222.02 222.668 223.844 221.732 225.428C220.82 226.988 219.56 228.188 217.952 229.028C216.368 229.868 214.592 230.288 212.624 230.288ZM212.624 224.96C213.8 224.96 214.796 224.528 215.612 223.664C216.452 222.8 216.872 221.564 216.872 219.956C216.872 218.348 216.464 217.112 215.648 216.248C214.856 215.384 213.872 214.952 212.696 214.952C211.496 214.952 210.5 215.384 209.708 216.248C208.916 217.088 208.52 218.324 208.52 219.956C208.52 221.564 208.904 222.8 209.672 223.664C210.464 224.528 211.448 224.96 212.624 224.96ZM237.598 224.78V230H234.466C232.234 230 230.494 229.46 229.246 228.38C227.998 227.276 227.374 225.488 227.374 223.016V215.024H224.926V209.912H227.374V205.016H233.53V209.912H237.562V215.024H233.53V223.088C233.53 223.688 233.674 224.12 233.962 224.384C234.25 224.648 234.73 224.78 235.402 224.78H237.598Z" fill="#17163B"/>
<path d="M148.889 17.0011C144.028 12.924 146.911 5 153.256 5H219.673C225.886 5 228.877 12.6173 224.324 16.8447C223.507 17.6034 222.517 18.1507 221.44 18.4389L189.593 26.9614C188.273 27.3146 186.885 27.3238 185.56 26.9883L151.587 18.3817C150.595 18.1305 149.673 17.6585 148.889 17.0011Z" fill="#DCDFE7"/>
<path d="M184.338 27.4102L149.499 17.9089C148.512 17.6398 147.599 17.1521 146.825 16.4821C142.051 12.3444 144.978 4.5 151.295 4.5H219.531C225.766 4.5 228.768 12.1443 224.199 16.3867C223.411 17.1186 222.461 17.6549 221.428 17.9523L188.654 27.3803C187.245 27.7856 185.752 27.796 184.338 27.4102Z" stroke="#5050FF" stroke-width="4" stroke-linecap="round"/>
<defs>
<filter id="filter0_d_224_1163" x="0" y="0" width="370.141" height="279.944" filterUnits="userSpaceOnUse" color-interpolation-filters="sRGB">
<feFlood flood-opacity="0" result="BackgroundImageFix"/>
<feColorMatrix in="SourceAlpha" type="matrix" values="0 0 0 0 0 0 0 0 0 0 0 0 0 0 0 0 0 0 127 0" result="hardAlpha"/>
<feOffset dy="8"/>
<feGaussianBlur stdDeviation="6.5"/>
<feComposite in2="hardAlpha" operator="out"/>
<feColorMatrix type="matrix" values="0 0 0 0 0 0 0 0 0 0 0 0 0 0 0 0 0 0 0.25 0"/>
<feBlend mode="normal" in2="BackgroundImageFix" result="effect1_dropShadow_224_1163"/>
<feBlend mode="normal" in="SourceGraphic" in2="effect1_dropShadow_224_1163" result="shape"/>
</filter>
</defs>
</svg>
