<svg width="450" height="450" viewBox="0 0 450 450" fill="none" xmlns="http://www.w3.org/2000/svg">
<rect width="450" height="450" rx="225" fill="white"/>
<path d="M121.1 323.7C112.9 323.7 105.5 321.8 98.9 318C92.5 314.2 89.3 308.9 89.3 302.1C89.3 299.3 90.1 297.3 91.7 296.1C93.3 294.7 95 294 96.8 294C100.2 294 102 295.2 102.2 297.6C102.6 300.4 103.7 302.9 105.5 305.1C107.3 307.3 110.4 308.7 114.8 309.3C119.2 309.9 123.7 308.4 128.3 304.8C132.9 301 137.3 296.1 141.5 290.1C145.7 284.1 149.3 278 152.3 271.8C155.3 265.6 157.4 260.3 158.6 255.9C155.6 259.5 151.7 263 146.9 266.4C142.3 269.6 136.1 271.2 128.3 271.2C121.7 271.2 116.3 268.7 112.1 263.7C107.9 258.7 105.8 252.3 105.8 244.5C105.8 234.1 107.5 223.7 110.9 213.3C114.3 202.7 119.2 193.1 125.6 184.5C132 175.7 139.8 168.7 149 163.5C158.2 158.1 168.5 155.4 179.9 155.4C191.9 155.4 200.4 158.8 205.4 165.6C210.6 172.2 213.2 180.8 213.2 191.4C213.2 203 210.6 216.2 205.4 231C200.2 245.6 193.5 259.8 185.3 273.6C180.3 282.2 174.2 290.4 167 298.2C160 305.8 153.3 311.8 146.9 316.2C143.1 318.8 139 320.7 134.6 321.9C130.2 323.1 125.7 323.7 121.1 323.7ZM146.6 255.9C149.2 255.9 152 253.9 155 249.9C158.2 245.7 161.2 240.6 164 234.6C167 228.6 169.7 222.2 172.1 215.4C174.5 208.4 176.4 201.7 177.8 195.3C179.4 188.9 180.2 183.5 180.2 179.1C180.2 172.9 178.5 169.8 175.1 169.8C172.7 169.8 170.4 171 168.2 173.4C166.2 175.8 164.3 178.7 162.5 182.1C160.7 185.5 159.1 188.8 157.7 192C156.5 195.2 155.6 197.6 155 199.2C154.6 200 153.7 202.3 152.3 206.1C151.1 209.9 149.7 214.4 148.1 219.6C146.7 224.6 145.4 229.7 144.2 234.9C143.2 240.1 142.7 244.5 142.7 248.1C142.7 253.3 144 255.9 146.6 255.9Z" fill="#5050FF"/>
<path d="M219 171H347L338.739 185H221.522L219 171Z" fill="#14142D"/>
<path d="M221.102 195H334L326.556 209H218L221.102 195Z" fill="#14142D"/>
<path d="M216.247 219H320L312.719 233H212L216.247 219Z" fill="#14142D"/>
<path d="M211.103 243H307L300 256L204 257L211.103 243Z" fill="#14142D"/>
<path d="M206.911 279.425C206.953 278.359 206.642 277.537 205.977 276.957C205.321 276.378 204.328 276.088 202.999 276.088C202.095 276.088 201.311 276.216 200.646 276.472C199.982 276.719 199.449 277.064 199.048 277.507C198.656 277.942 198.413 278.445 198.32 279.016C198.226 279.484 198.256 279.893 198.409 280.243C198.571 280.592 198.822 280.895 199.163 281.151C199.513 281.398 199.926 281.615 200.403 281.803C200.881 281.982 201.388 282.135 201.925 282.263L204.175 282.825C205.274 283.081 206.263 283.422 207.141 283.848C208.027 284.274 208.768 284.798 209.365 285.42C209.97 286.043 210.396 286.776 210.643 287.619C210.891 288.463 210.925 289.43 210.746 290.521C210.473 292.124 209.838 293.513 208.841 294.689C207.844 295.857 206.536 296.764 204.916 297.412C203.297 298.051 201.422 298.371 199.291 298.371C197.178 298.371 195.392 298.047 193.935 297.399C192.477 296.751 191.416 295.793 190.751 294.523C190.095 293.244 189.899 291.663 190.163 289.78H195.52C195.426 290.658 195.554 291.391 195.903 291.979C196.261 292.558 196.794 292.997 197.501 293.295C198.209 293.585 199.04 293.73 199.994 293.73C200.94 293.73 201.78 293.594 202.513 293.321C203.254 293.048 203.855 292.669 204.315 292.183C204.776 291.697 205.057 291.139 205.159 290.509C205.261 289.92 205.172 289.426 204.891 289.026C204.609 288.625 204.158 288.284 203.536 288.003C202.922 287.713 202.159 287.457 201.247 287.236L198.511 286.52C196.398 285.983 194.8 285.143 193.717 284.001C192.635 282.859 192.247 281.321 192.554 279.386C192.827 277.801 193.487 276.416 194.536 275.232C195.592 274.038 196.922 273.114 198.524 272.457C200.135 271.793 201.895 271.46 203.804 271.46C205.747 271.46 207.388 271.797 208.726 272.47C210.064 273.135 211.04 274.064 211.653 275.257C212.267 276.45 212.455 277.839 212.216 279.425H206.911ZM220.49 286.648L218.598 298H213.165L217.512 271.818H222.792L221.155 281.828H221.373C222.003 280.669 222.868 279.761 223.968 279.105C225.067 278.44 226.367 278.108 227.867 278.108C229.23 278.108 230.368 278.406 231.28 279.003C232.201 279.591 232.853 280.439 233.236 281.547C233.62 282.646 233.684 283.963 233.428 285.497L231.331 298H225.898L227.816 286.469C228.012 285.259 227.854 284.317 227.343 283.643C226.84 282.97 226.039 282.634 224.939 282.634C224.198 282.634 223.516 282.791 222.894 283.107C222.272 283.422 221.748 283.882 221.321 284.487C220.904 285.084 220.627 285.804 220.49 286.648ZM244.489 298.384C242.487 298.384 240.829 297.957 239.516 297.105C238.204 296.244 237.279 295.051 236.742 293.526C236.214 291.991 236.116 290.206 236.448 288.169C236.772 286.158 237.445 284.398 238.468 282.889C239.491 281.381 240.79 280.209 242.367 279.374C243.944 278.53 245.721 278.108 247.698 278.108C249.692 278.108 251.346 278.538 252.658 279.399C253.971 280.251 254.896 281.445 255.433 282.979C255.969 284.513 256.072 286.298 255.739 288.335C255.407 290.338 254.725 292.094 253.694 293.602C252.663 295.111 251.363 296.287 249.795 297.131C248.227 297.966 246.458 298.384 244.489 298.384ZM245.026 294.165C245.947 294.165 246.761 293.905 247.468 293.385C248.184 292.857 248.776 292.141 249.245 291.237C249.722 290.325 250.055 289.294 250.242 288.143C250.43 287.01 250.442 286.004 250.281 285.126C250.119 284.24 249.778 283.541 249.258 283.03C248.746 282.518 248.043 282.263 247.148 282.263C246.228 282.263 245.41 282.527 244.694 283.055C243.978 283.575 243.386 284.291 242.917 285.203C242.448 286.115 242.12 287.151 241.933 288.31C241.754 289.435 241.741 290.44 241.894 291.327C242.048 292.205 242.384 292.899 242.904 293.411C243.424 293.913 244.131 294.165 245.026 294.165ZM266.567 298.384C264.565 298.384 262.907 297.957 261.594 297.105C260.282 296.244 259.357 295.051 258.82 293.526C258.292 291.991 258.194 290.206 258.526 288.169C258.85 286.158 259.523 284.398 260.546 282.889C261.569 281.381 262.869 280.209 264.445 279.374C266.022 278.53 267.799 278.108 269.776 278.108C271.771 278.108 273.424 278.538 274.737 279.399C276.049 280.251 276.974 281.445 277.511 282.979C278.048 284.513 278.15 286.298 277.817 288.335C277.485 290.338 276.803 292.094 275.772 293.602C274.741 295.111 273.441 296.287 271.873 297.131C270.305 297.966 268.536 298.384 266.567 298.384ZM267.104 294.165C268.025 294.165 268.839 293.905 269.546 293.385C270.262 292.857 270.854 292.141 271.323 291.237C271.8 290.325 272.133 289.294 272.32 288.143C272.508 287.01 272.521 286.004 272.359 285.126C272.197 284.24 271.856 283.541 271.336 283.03C270.825 282.518 270.121 282.263 269.227 282.263C268.306 282.263 267.488 282.527 266.772 283.055C266.056 283.575 265.464 284.291 264.995 285.203C264.526 286.115 264.198 287.151 264.011 288.31C263.832 289.435 263.819 290.44 263.972 291.327C264.126 292.205 264.462 292.899 264.982 293.411C265.502 293.913 266.21 294.165 267.104 294.165ZM293.465 278.364L292.788 282.455H280.95L281.64 278.364H293.465ZM285.092 273.659H290.538L287.495 291.966C287.41 292.469 287.423 292.861 287.533 293.142C287.644 293.415 287.827 293.607 288.083 293.717C288.347 293.828 288.663 293.884 289.029 293.884C289.285 293.884 289.545 293.862 289.809 293.82C290.073 293.768 290.273 293.73 290.41 293.705L290.614 297.757C290.308 297.851 289.894 297.953 289.374 298.064C288.863 298.175 288.258 298.243 287.559 298.268C286.229 298.32 285.104 298.145 284.184 297.744C283.263 297.335 282.603 296.709 282.202 295.865C281.802 295.021 281.717 293.96 281.947 292.682L285.092 273.659Z" fill="black"/>
</svg>
