<?xml version="1.0" standalone="no"?>
<!DOCTYPE svg PUBLIC "-//W3C//DTD SVG 20010904//EN"
 "http://www.w3.org/TR/2001/REC-SVG-20010904/DTD/svg10.dtd">
<svg version="1.0" xmlns="http://www.w3.org/2000/svg"
 width="512.000000pt" height="512.000000pt" viewBox="0 0 512.000000 512.000000"
 preserveAspectRatio="xMidYMid meet">

<g transform="translate(0.000000,512.000000) scale(0.100000,-0.100000)"
fill="#000000" stroke="none">
<path d="M3382 5095 c-236 -61 -474 -200 -620 -361 -153 -169 -247 -421 -259
-689 -6 -156 -4 -160 90 -145 245 39 544 202 690 376 79 93 132 185 178 306
61 159 100 390 85 493 -7 43 -9 45 -39 45 -18 -1 -74 -12 -125 -25z"/>
<path d="M1535 3894 c-11 -3 -66 -16 -122 -30 -547 -133 -910 -544 -1025
-1159 -30 -163 -33 -577 -5 -755 34 -216 88 -428 154 -605 200 -537 560 -1034
906 -1249 148 -92 237 -110 408 -81 99 16 163 36 504 156 142 50 156 53 265
57 139 5 204 -10 438 -97 384 -143 539 -161 706 -82 329 155 712 629 939 1161
67 159 70 140 -30 185 -129 58 -220 124 -320 229 -136 145 -216 292 -270 496
-30 113 -42 350 -24 466 51 327 235 607 505 767 l47 27 -18 31 c-33 57 -125
160 -193 217 -210 177 -527 283 -804 269 -136 -7 -233 -31 -517 -132 -427
-152 -438 -152 -866 0 -304 107 -382 126 -533 131 -69 1 -134 1 -145 -2z"/>
</g>
</svg>
