<svg width="24" height="24" viewBox="0 0 24 24" fill="none" xmlns="http://www.w3.org/2000/svg">
<path d="M12.1504 19.35C11.7404 19.35 11.4004 19.01 11.4004 18.6V16.5C11.4004 16.09 11.7404 15.75 12.1504 15.75C12.5604 15.75 12.9004 16.09 12.9004 16.5V18.6C12.9004 19.01 12.5604 19.35 12.1504 19.35Z" fill="#818181"/>
<path d="M17.9004 22.75H6.40039V21C6.40039 19.48 7.63039 18.25 9.15039 18.25H15.1504C16.6704 18.25 17.9004 19.48 17.9004 21V22.75ZM7.90039 21.25H16.4004V21C16.4004 20.31 15.8404 19.75 15.1504 19.75H9.15039C8.46039 19.75 7.90039 20.31 7.90039 21V21.25Z" fill="#818181"/>
<path d="M18.1504 22.75H6.15039C5.74039 22.75 5.40039 22.41 5.40039 22C5.40039 21.59 5.74039 21.25 6.15039 21.25H18.1504C18.5604 21.25 18.9004 21.59 18.9004 22C18.9004 22.41 18.5604 22.75 18.1504 22.75Z" fill="#818181"/>
<path d="M18.4297 12.4401C18.2197 12.4401 18.0097 12.3501 17.8597 12.1801C17.6697 11.9601 17.6197 11.6501 17.7397 11.3901C18.0797 10.6101 18.2497 9.78006 18.2497 8.91006V5.91006C18.2497 5.56006 18.1897 5.22006 18.0697 4.86006C18.0597 4.83006 18.0497 4.79006 18.0397 4.75006C18.0097 4.60006 17.9997 4.45006 17.9997 4.31006C17.9997 3.90006 18.3397 3.56006 18.7497 3.56006H19.3497C21.1397 3.56006 22.5997 5.06006 22.5997 6.91006C22.5997 8.44006 21.9697 9.95006 20.8797 11.0401C20.8597 11.0601 20.7997 11.1101 20.7897 11.1201C20.1997 11.6101 19.5297 12.1601 18.6297 12.4101C18.5597 12.4301 18.4997 12.4401 18.4297 12.4401ZM19.6797 5.09006C19.7297 5.36006 19.7497 5.64006 19.7497 5.91006V8.91006C19.7497 9.32006 19.7197 9.71006 19.6597 10.1101C19.7197 10.0601 19.7697 10.0201 19.8297 9.97006C20.6297 9.17006 21.0997 8.05006 21.0997 6.91006C21.0997 6.01006 20.4897 5.25006 19.6797 5.09006Z" fill="#818181"/>
<path d="M5.57941 12.4C5.49941 12.4 5.42941 12.39 5.34941 12.36C4.52941 12.1 3.75941 11.62 3.11941 10.98C1.96941 9.70998 1.39941 8.31998 1.39941 6.84998C1.39941 5.02998 2.82941 3.59998 4.64941 3.59998H5.29941C5.54941 3.59998 5.78941 3.72998 5.92941 3.93998C6.06941 4.14998 6.08941 4.41998 5.98941 4.64998C5.82941 5.00998 5.74941 5.41998 5.74941 5.84998V8.84998C5.74941 9.70998 5.91941 10.55 6.26941 11.35C6.38941 11.62 6.32941 11.93 6.13941 12.15C5.98941 12.31 5.78941 12.4 5.57941 12.4ZM4.29941 5.12998C3.48941 5.28998 2.89941 5.98998 2.89941 6.84998C2.89941 7.93998 3.33941 8.98998 4.20941 9.94998C4.24941 9.99998 4.29941 10.04 4.34941 10.08C4.27941 9.66998 4.24941 9.25998 4.24941 8.84998V5.84998C4.24941 5.60998 4.26941 5.36998 4.29941 5.12998Z" fill="#818181"/>
<path d="M12 16.75C7.73 16.75 4.25 13.27 4.25 9V6C4.25 3.38 6.38 1.25 9 1.25H15C17.62 1.25 19.75 3.38 19.75 6V9C19.75 13.27 16.27 16.75 12 16.75ZM9 2.75C7.21 2.75 5.75 4.21 5.75 6V9C5.75 12.45 8.55 15.25 12 15.25C15.45 15.25 18.25 12.45 18.25 9V6C18.25 4.21 16.79 2.75 15 2.75H9Z" fill="#818181"/>
</svg>
