<svg width="30" height="30" viewBox="0 0 30 30" fill="none" xmlns="http://www.w3.org/2000/svg">
<path d="M22.175 28.4375H7.825C4.7125 28.4375 2.1875 25.9125 2.1875 22.8V14.3875C2.1875 11.275 4.7125 8.75 7.825 8.75H22.175C25.2875 8.75 27.8125 11.275 27.8125 14.3875V16.1875C27.8125 16.7 27.3875 17.125 26.875 17.125H24.35C23.9125 17.125 23.5125 17.2875 23.225 17.5875L23.2125 17.6C22.8625 17.9375 22.7 18.4 22.7375 18.875C22.8125 19.7 23.6 20.3625 24.5 20.3625H26.875C27.3875 20.3625 27.8125 20.7875 27.8125 21.3V22.7875C27.8125 25.9125 25.2875 28.4375 22.175 28.4375ZM7.825 10.625C5.75 10.625 4.0625 12.3125 4.0625 14.3875V22.8C4.0625 24.875 5.75 26.5625 7.825 26.5625H22.175C24.25 26.5625 25.9375 24.875 25.9375 22.8V22.25H24.5C22.6125 22.25 21.0125 20.85 20.8625 19.05C20.7625 18.025 21.1375 17.0125 21.8875 16.275C22.5375 15.6125 23.4125 15.25 24.35 15.25H25.9375V14.3875C25.9375 12.3125 24.25 10.625 22.175 10.625H7.825Z" fill="black"/>
<path d="M3.125 16.45C2.6125 16.45 2.1875 16.025 2.1875 15.5125V9.80008C2.1875 7.93758 3.3625 6.25001 5.1 5.58751L15.025 1.83751C16.05 1.45001 17.1875 1.58757 18.075 2.21257C18.975 2.83757 19.5 3.85006 19.5 4.93756V9.68754C19.5 10.2 19.075 10.625 18.5625 10.625C18.05 10.625 17.625 10.2 17.625 9.68754V4.93756C17.625 4.46256 17.4 4.02504 17 3.75004C16.6 3.47504 16.125 3.41254 15.675 3.58754L5.75 7.33754C4.7375 7.72504 4.05 8.71258 4.05 9.80008V15.5125C4.0625 16.0375 3.6375 16.45 3.125 16.45Z" fill="black"/>
<path d="M24.5001 22.25C22.6126 22.25 21.0126 20.85 20.8626 19.05C20.7626 18.0125 21.1376 17 21.8876 16.2625C22.5251 15.6125 23.4001 15.25 24.3376 15.25H26.9376C28.1751 15.2875 29.1251 16.2624 29.1251 17.4624V20.0375C29.1251 21.2375 28.1751 22.2125 26.9751 22.25H24.5001ZM26.9126 17.125H24.3501C23.9126 17.125 23.5126 17.2875 23.2251 17.5875C22.8626 17.9375 22.6876 18.4125 22.7376 18.8875C22.8126 19.7125 23.6001 20.375 24.5001 20.375H26.9501C27.1126 20.375 27.2626 20.225 27.2626 20.0375V17.4624C27.2626 17.2749 27.1126 17.1375 26.9126 17.125Z" fill="black"/>
<path d="M17.5 15.9375H8.75C8.2375 15.9375 7.8125 15.5125 7.8125 15C7.8125 14.4875 8.2375 14.0625 8.75 14.0625H17.5C18.0125 14.0625 18.4375 14.4875 18.4375 15C18.4375 15.5125 18.0125 15.9375 17.5 15.9375Z" fill="black"/>
</svg>
