<svg width="30" height="30" viewBox="0 0 30 30" fill="none" xmlns="http://www.w3.org/2000/svg">
<path d="M15.0248 25.6624C12.1123 25.6624 9.19984 25.1999 6.43734 24.2749C5.38734 23.9124 4.58734 23.1749 4.23734 22.2124C3.87484 21.2499 3.99984 20.1874 4.57484 19.2374L6.01234 16.8499C6.31234 16.3499 6.58734 15.3499 6.58734 14.7624V11.1499C6.58734 6.4999 10.3748 2.7124 15.0248 2.7124C19.6748 2.7124 23.4623 6.4999 23.4623 11.1499V14.7624C23.4623 15.3374 23.7373 16.3499 24.0373 16.8624L25.4623 19.2374C25.9998 20.1374 26.0998 21.2249 25.7373 22.2124C25.3748 23.1999 24.5873 23.9499 23.5998 24.2749C20.8498 25.1999 17.9373 25.6624 15.0248 25.6624ZM15.0248 4.5874C11.4123 4.5874 8.46234 7.5249 8.46234 11.1499V14.7624C8.46234 15.6749 8.08734 17.0249 7.62484 17.8124L6.18734 20.1999C5.91234 20.6624 5.83734 21.1499 5.99984 21.5624C6.14984 21.9874 6.52484 22.3124 7.03734 22.4874C12.2623 24.2374 17.7998 24.2374 23.0248 22.4874C23.4748 22.3374 23.8248 21.9999 23.9873 21.5499C24.1498 21.0999 24.1123 20.6124 23.8623 20.1999L22.4248 17.8124C21.9498 16.9999 21.5873 15.6624 21.5873 14.7499V11.1499C21.5873 7.5249 18.6498 4.5874 15.0248 4.5874Z" fill="black"/>
<path d="M17.3498 4.9251C17.2623 4.9251 17.1748 4.9126 17.0873 4.8876C16.7248 4.7876 16.3748 4.7126 16.0373 4.6626C14.9748 4.5251 13.9498 4.6001 12.9873 4.8876C12.6373 5.0001 12.2623 4.8876 12.0248 4.6251C11.7873 4.3626 11.7123 3.9876 11.8498 3.6501C12.3623 2.3376 13.6123 1.4751 15.0373 1.4751C16.4623 1.4751 17.7123 2.3251 18.2248 3.6501C18.3498 3.9876 18.2873 4.3626 18.0498 4.6251C17.8623 4.8251 17.5998 4.9251 17.3498 4.9251Z" fill="black"/>
<path d="M15.0249 28.5125C13.7874 28.5125 12.5874 28.0125 11.7124 27.1375C10.8374 26.2625 10.3374 25.0625 10.3374 23.825H12.2124C12.2124 24.5625 12.5124 25.2875 13.0374 25.8125C13.5624 26.3375 14.2874 26.6375 15.0249 26.6375C16.5749 26.6375 17.8374 25.375 17.8374 23.825H19.7124C19.7124 26.4125 17.6124 28.5125 15.0249 28.5125Z" fill="black"/>
</svg>
