<?xml version="1.0" standalone="no"?>
<!DOCTYPE svg PUBLIC "-//W3C//DTD SVG 20010904//EN"
 "http://www.w3.org/TR/2001/REC-SVG-20010904/DTD/svg10.dtd">
<svg version="1.0" xmlns="http://www.w3.org/2000/svg"
 width="505.000000pt" height="505.000000pt" viewBox="0 0 505.000000 505.000000"
 preserveAspectRatio="xMidYMid meet">

<g transform="translate(0.000000,505.000000) scale(0.100000,-0.100000)"
fill="#000000" stroke="none">
<path d="M2460 4274 c-14 -2 -59 -9 -100 -15 -487 -70 -862 -384 -977 -815
-35 -133 -37 -337 -5 -457 42 -153 116 -257 240 -338 137 -90 273 -129 595
-169 271 -34 383 -72 428 -143 29 -46 22 -147 -13 -202 -47 -73 -114 -123
-206 -154 -61 -21 -81 -21 -595 -22 -293 0 -551 -4 -575 -8 -55 -11 -79 -34
-138 -134 -27 -45 -92 -156 -146 -247 -55 -93 -98 -176 -98 -191 0 -29 33 -69
58 -70 9 0 266 0 570 1 417 1 552 -1 552 -10 0 -7 -43 -96 -96 -199 -53 -102
-130 -250 -170 -328 -76 -147 -89 -193 -55 -193 29 0 1137 888 1296 1039 232
220 335 452 336 756 0 144 -18 231 -68 334 -98 199 -301 307 -658 351 -338 41
-455 67 -531 117 -59 38 -83 158 -49 241 31 73 116 141 233 185 55 21 76 22
594 27 526 5 537 5 565 26 16 12 92 127 172 260 166 276 177 308 120 343 -33
21 -45 21 -644 20 -335 -1 -621 -3 -635 -5z"/>
<path d="M4277 3696 c-13 -14 -115 -154 -226 -313 -112 -158 -227 -319 -254
-358 -90 -124 -182 -256 -196 -282 -25 -47 -2 -56 171 -62 l153 -6 -3 -27 c-3
-29 -58 -298 -109 -534 -23 -111 -25 -134 -14 -148 7 -9 18 -16 23 -16 16 0
57 51 174 215 63 88 217 304 344 480 126 176 237 335 246 353 28 60 23 62
-166 62 l-170 0 0 29 c0 27 25 185 70 451 26 151 26 180 0 180 -12 0 -31 -11
-43 -24z"/>
<path d="M982 3642 c-10 -10 -83 -112 -162 -227 -79 -116 -187 -271 -240 -345
-52 -74 -103 -146 -112 -160 -10 -14 -58 -81 -108 -150 -94 -130 -111 -163
-91 -183 8 -8 67 -14 164 -17 l152 -5 -3 -30 c-2 -16 -23 -149 -48 -295 -24
-146 -44 -270 -44 -276 0 -24 30 -22 59 2 16 13 80 95 142 182 119 166 164
228 300 411 46 63 91 125 99 137 8 12 41 58 73 102 31 44 57 87 57 96 0 26
-37 35 -175 43 l-130 8 3 50 c1 28 11 93 22 145 67 312 97 485 89 507 -10 28
-23 29 -47 5z"/>
</g>
</svg>
