<svg width="25" height="24" viewBox="0 0 25 24" fill="none" xmlns="http://www.w3.org/2000/svg">
<path d="M12.5 14.75C10.98 14.75 9.75 13.52 9.75 12C9.75 10.48 10.98 9.25 12.5 9.25C14.02 9.25 15.25 10.48 15.25 12C15.25 13.52 14.02 14.75 12.5 14.75ZM12.5 10.75C11.81 10.75 11.25 11.31 11.25 12C11.25 12.69 11.81 13.25 12.5 13.25C13.19 13.25 13.75 12.69 13.75 12C13.75 11.31 13.19 10.75 12.5 10.75Z" fill="white"/>
<path d="M20.5003 18.75C20.3403 18.75 20.1903 18.7 20.0503 18.6C19.7203 18.35 19.6503 17.88 19.9003 17.55C21.1103 15.94 21.7503 14.02 21.7503 12C21.7503 9.98004 21.1103 8.06005 19.9003 6.45005C19.6503 6.12005 19.7203 5.65003 20.0503 5.40003C20.3803 5.15003 20.8503 5.22002 21.1003 5.55002C22.5103 7.42002 23.2503 9.65004 23.2503 12C23.2503 14.35 22.5103 16.58 21.1003 18.45C20.9503 18.65 20.7303 18.75 20.5003 18.75Z" fill="white"/>
<path d="M4.5 18.75C4.27 18.75 4.04999 18.65 3.89999 18.45C2.48999 16.58 1.75 14.35 1.75 12C1.75 9.65004 2.48999 7.42002 3.89999 5.55002C4.14999 5.22002 4.62001 5.15003 4.95001 5.40003C5.28001 5.65003 5.35001 6.12005 5.10001 6.45005C3.89001 8.06005 3.25 9.98004 3.25 12C3.25 14.02 3.89001 15.94 5.10001 17.55C5.35001 17.88 5.28001 18.35 4.95001 18.6C4.82001 18.7 4.66 18.75 4.5 18.75Z" fill="white"/>
<path d="M17.3001 16.3499C17.1401 16.3499 16.9901 16.2999 16.8501 16.1999C16.5201 15.9499 16.4501 15.4799 16.7001 15.1499C17.3901 14.2399 17.7501 13.1499 17.7501 11.9999C17.7501 10.8499 17.3901 9.75994 16.7001 8.84994C16.4501 8.51994 16.5201 8.04992 16.8501 7.79992C17.1801 7.54992 17.6501 7.61995 17.9001 7.94995C18.7801 9.12995 19.2501 10.5299 19.2501 11.9999C19.2501 13.4699 18.7801 14.8799 17.9001 16.0499C17.7501 16.2499 17.5301 16.3499 17.3001 16.3499Z" fill="white"/>
<path d="M7.70001 16.3499C7.47001 16.3499 7.25001 16.2499 7.10001 16.0499C6.22001 14.8699 5.75 13.4699 5.75 11.9999C5.75 10.5299 6.22001 9.11995 7.10001 7.94995C7.35001 7.61995 7.81999 7.54992 8.14999 7.79992C8.47999 8.04992 8.54999 8.51994 8.29999 8.84994C7.60999 9.75994 7.25 10.8499 7.25 11.9999C7.25 13.1499 7.60999 14.2399 8.29999 15.1499C8.54999 15.4799 8.47999 15.9499 8.14999 16.1999C8.01999 16.2999 7.86001 16.3499 7.70001 16.3499Z" fill="white"/>
</svg>
